<svg width="42" height="40" viewBox="0 0 42 40" fill="none" xmlns="http://www.w3.org/2000/svg">
<path d="M6.00003 30H20.6667V32.6667H6.00003V30Z" fill="#3D9AE2"/>
<path d="M19.3334 30.0002H7.33337V19.6669C7.33337 19.2249 7.50897 18.801 7.82153 18.4884C8.13409 18.1758 8.55801 18.0002 9.00004 18.0002H17.6667C18.1087 18.0002 18.5327 18.1758 18.8452 18.4884C19.1578 18.801 19.3334 19.2249 19.3334 19.6669V30.0002Z" fill="#96C8EF"/>
<path d="M20.6667 30H35.3333V32.6667H20.6667V30Z" fill="#3D9AE2"/>
<path d="M34.0001 30.0002H22.0001V19.6669C22.0001 19.2249 22.1757 18.801 22.4882 18.4884C22.8008 18.1758 23.2247 18.0002 23.6667 18.0002H32.3334C32.7754 18.0002 33.1993 18.1758 33.5119 18.4884C33.8245 18.801 34.0001 19.2249 34.0001 19.6669V30.0002Z" fill="#96C8EF"/>
<path d="M2.00006 27.3334H4.00006V39.3334H2.00006V27.3334Z" fill="#ACABB1"/>
<path d="M37.3333 27.3334H39.3333V39.3334H37.3333V27.3334Z" fill="#ACABB1"/>
<path d="M20.6667 11.3332C23.6122 11.3332 26 8.94536 26 5.99984C26 3.05432 23.6122 0.666504 20.6667 0.666504C17.7212 0.666504 15.3334 3.05432 15.3334 5.99984C15.3334 8.94536 17.7212 11.3332 20.6667 11.3332Z" fill="#FFDA44"/>
<path d="M20.6667 3.33325V5.99992L21.6667 6.99992" fill="#E0E0E2"/>
<path d="M40.6667 38.6667H40V27.3334C40 27.1566 39.9298 26.987 39.8047 26.862C39.6797 26.7369 39.5101 26.6667 39.3333 26.6667H37.3333C37.1565 26.6667 36.9869 26.7369 36.8619 26.862C36.7369 26.987 36.6667 27.1566 36.6667 27.3334V30.6667H36V30C36 29.8232 35.9298 29.6537 35.8047 29.5286C35.6797 29.4036 35.5101 29.3334 35.3333 29.3334H34.6667V19.6667C34.666 19.0481 34.4199 18.455 33.9825 18.0175C33.5451 17.5801 32.952 17.3341 32.3333 17.3334H23.6667C23.048 17.3341 22.4549 17.5801 22.0175 18.0175C21.5801 18.455 21.334 19.0481 21.3333 19.6667V29.3334H20V19.6667C19.9993 19.0481 19.7533 18.455 19.3158 18.0175C18.8784 17.5801 18.2853 17.3341 17.6667 17.3334H9C8.38137 17.3341 7.78828 17.5801 7.35084 18.0175C6.9134 18.455 6.66735 19.0481 6.66667 19.6667V29.3334H6C5.82319 29.3334 5.65362 29.4036 5.5286 29.5286C5.40357 29.6537 5.33333 29.8232 5.33333 30V30.6667H4.66667V27.3334C4.66667 27.1566 4.59643 26.987 4.4714 26.862C4.34638 26.7369 4.17681 26.6667 4 26.6667H2C1.82319 26.6667 1.65362 26.7369 1.5286 26.862C1.40357 26.987 1.33333 27.1566 1.33333 27.3334V38.6667H0.666667C0.489856 38.6667 0.320286 38.7369 0.195262 38.862C0.0702379 38.987 0 39.1566 0 39.3334C0 39.5102 0.0702379 39.6798 0.195262 39.8048C0.320286 39.9298 0.489856 40 0.666667 40H40.6667C40.8435 40 41.013 39.9298 41.1381 39.8048C41.2631 39.6798 41.3333 39.5102 41.3333 39.3334C41.3333 39.1566 41.2631 38.987 41.1381 38.862C41.013 38.7369 40.8435 38.6667 40.6667 38.6667ZM3.33333 38.6667H2.66667V28H3.33333V38.6667ZM22.6667 19.6667C22.6669 19.4016 22.7723 19.1473 22.9598 18.9598C23.1473 18.7724 23.4015 18.6669 23.6667 18.6667H32.3333C32.5985 18.6669 32.8527 18.7724 33.0402 18.9598C33.2277 19.1473 33.3331 19.4016 33.3333 19.6667V29.3334H22.6667V19.6667ZM21.3333 30.6667H34.6667V32H21.3333V30.6667ZM8 19.6667C8.00022 19.4016 8.10565 19.1473 8.29314 18.9598C8.48063 18.7724 8.73485 18.6669 9 18.6667H17.6667C17.9318 18.6669 18.186 18.7724 18.3735 18.9598C18.561 19.1473 18.6664 19.4016 18.6667 19.6667V29.3334H8V19.6667ZM6.66667 30.6667H20V32H6.66667V30.6667ZM36.6667 38.6667H4.66667V32H5.33333V32.6667C5.33333 32.8435 5.40357 33.0131 5.5286 33.1381C5.65362 33.2631 5.82319 33.3334 6 33.3334H35.3333C35.5101 33.3334 35.6797 33.2631 35.8047 33.1381C35.9298 33.0131 36 32.8435 36 32.6667V32H36.6667V38.6667ZM38.6667 38.6667H38V28H38.6667V38.6667Z" fill="black"/>
<path d="M20.6666 12C21.8533 12 23.0134 11.6481 24 10.9888C24.9867 10.3295 25.7558 9.39246 26.2099 8.2961C26.664 7.19975 26.7828 5.99335 26.5513 4.82946C26.3198 3.66557 25.7484 2.59648 24.9093 1.75736C24.0702 0.918247 23.0011 0.346802 21.8372 0.115291C20.6733 -0.11622 19.4669 0.00259968 18.3705 0.456725C17.2742 0.910851 16.3371 1.67989 15.6778 2.66658C15.0185 3.65328 14.6666 4.81331 14.6666 6C14.6684 7.59075 15.3011 9.11584 16.426 10.2407C17.5508 11.3655 19.0759 11.9982 20.6666 12ZM20.6666 1.33334C21.5896 1.33334 22.4919 1.60703 23.2593 2.11981C24.0267 2.63259 24.6249 3.36142 24.9781 4.21415C25.3313 5.06687 25.4237 6.00518 25.2436 6.91042C25.0636 7.81567 24.6191 8.64719 23.9665 9.29983C23.3138 9.95248 22.4823 10.3969 21.577 10.577C20.6718 10.7571 19.7335 10.6646 18.8808 10.3114C18.028 9.95823 17.2992 9.36009 16.7864 8.59266C16.2737 7.82523 16 6.92298 16 6C16.0013 4.76275 16.4935 3.57657 17.3683 2.70171C18.2432 1.82684 19.4294 1.33473 20.6666 1.33334Z" fill="black"/>
<path d="M21.1952 7.47138C21.3203 7.5964 21.4899 7.66664 21.6667 7.66664C21.8435 7.66664 22.0131 7.5964 22.1381 7.47138C22.2631 7.34635 22.3334 7.17677 22.3334 6.99996C22.3334 6.82314 22.2631 6.65357 22.1381 6.52854L21.3333 5.72388V3.33329C21.3333 3.15648 21.2631 2.98691 21.1381 2.86189C21.013 2.73686 20.8435 2.66663 20.6667 2.66663C20.4899 2.66663 20.3203 2.73686 20.1953 2.86189C20.0702 2.98691 20 3.15648 20 3.33329V5.99996C20 6.08751 20.0172 6.1742 20.0507 6.25509C20.0842 6.33597 20.1333 6.40947 20.1953 6.47138L21.1952 7.47138Z" fill="black"/>
</svg>
