<svg width="72" height="72" viewBox="0 0 72 72" fill="none" xmlns="http://www.w3.org/2000/svg">
<g filter="url(#filter0_d)">
<circle cx="36" cy="36" r="20" fill="white"/>
</g>
<path d="M32.1527 32.0374C33.2676 32.0374 34.1714 31.1336 34.1714 30.0187C34.1714 28.9038 33.2676 28 32.1527 28C31.0378 28 30.134 28.9038 30.134 30.0187C30.134 31.1336 31.0378 32.0374 32.1527 32.0374Z" fill="#51C5A9"/>
<path d="M32.402 39.3395C32.4518 39.5638 32.4767 39.7881 32.4767 40.0373V40.0623C32.5764 39.8878 32.701 39.7134 32.8506 39.5389C33.3241 38.9906 33.9222 38.5669 34.5951 38.3177C33.8225 37.8691 33.2992 37.0218 33.2992 36.0498C33.2992 35.0529 33.8475 34.2056 34.6699 33.757C34.0468 33.0841 33.1496 32.6604 32.1777 32.6604C31.7042 32.6604 31.2805 32.7601 30.8817 32.9096C31.0063 33.2336 31.0811 33.5576 31.0811 33.9314C31.0811 34.9034 30.5577 35.7258 29.7852 36.1993C31.131 36.6978 32.1528 37.8691 32.402 39.3395Z" fill="#51C5A9"/>
<path d="M39.6791 32.0374C40.794 32.0374 41.6978 31.1336 41.6978 30.0187C41.6978 28.9038 40.794 28 39.6791 28C38.5642 28 37.6604 28.9038 37.6604 30.0187C37.6604 31.1336 38.5642 32.0374 39.6791 32.0374Z" fill="#51C5A9"/>
<path d="M42.0717 36.1993C41.2992 35.7507 40.7758 34.9034 40.7758 33.9314C40.7758 33.5825 40.8506 33.2336 40.9752 32.9096C40.5764 32.7352 40.1278 32.6604 39.6792 32.6604C38.7073 32.6604 37.8101 33.0841 37.187 33.7321C38.0094 34.1807 38.5827 35.0529 38.5827 36.0498C38.5827 37.0218 38.0593 37.8442 37.2867 38.3177C37.9347 38.542 38.5079 38.9408 38.9565 39.4392C39.106 39.6137 39.2306 39.7881 39.3552 39.9875C39.3552 39.7134 39.3802 39.4641 39.43 39.2149C39.7291 37.8193 40.726 36.6729 42.0717 36.1993Z" fill="#51C5A9"/>
<path d="M35.9408 38.0935C37.0557 38.0935 37.9595 37.1897 37.9595 36.0748C37.9595 34.96 37.0557 34.0562 35.9408 34.0562C34.8259 34.0562 33.9221 34.96 33.9221 36.0748C33.9221 37.1897 34.8259 38.0935 35.9408 38.0935Z" fill="#51C5A9"/>
<path d="M39.355 42.1558C39.355 40.2617 37.8099 38.7415 35.9407 38.7415C34.0715 38.7415 32.5264 40.2866 32.5264 42.1558V43.2274C33.3239 43.7259 34.5949 44 35.9407 44C37.2865 44 38.5575 43.701 39.355 43.2274V42.1558Z" fill="#51C5A9"/>
<path d="M28.4144 35.9751C29.5293 35.9751 30.4331 35.0713 30.4331 33.9564C30.4331 32.8415 29.5293 31.9377 28.4144 31.9377C27.2996 31.9377 26.3958 32.8415 26.3958 33.9564C26.3958 35.0713 27.2996 35.9751 28.4144 35.9751Z" fill="#51C5A9"/>
<path d="M31.8536 41.0841V40.0125C31.8536 38.1184 30.3084 36.5981 28.4393 36.5981C26.5701 36.5981 25 38.1433 25 40.0374V41.109C25.7975 41.6075 27.0685 41.8816 28.4143 41.8816C29.785 41.8567 31.0312 41.5826 31.8536 41.0841Z" fill="#51C5A9"/>
<path d="M43.4174 35.9751C44.5323 35.9751 45.4361 35.0713 45.4361 33.9564C45.4361 32.8415 44.5323 31.9377 43.4174 31.9377C42.3025 31.9377 41.3987 32.8415 41.3987 33.9564C41.3987 35.0713 42.3025 35.9751 43.4174 35.9751Z" fill="#51C5A9"/>
<path d="M43.4175 36.5981C41.5234 36.5981 40.0032 38.1433 40.0032 40.0125V41.0841C40.8007 41.5826 42.0717 41.8567 43.4175 41.8567C44.7633 41.8567 46.0343 41.5576 46.8318 41.0841V40.0125C46.8318 38.1433 45.2867 36.5981 43.4175 36.5981Z" fill="#51C5A9"/>
<defs>
<filter id="filter0_d" x="0" y="0" width="72" height="72" filterUnits="userSpaceOnUse" color-interpolation-filters="sRGB">
<feFlood flood-opacity="0" result="BackgroundImageFix"/>
<feColorMatrix in="SourceAlpha" type="matrix" values="0 0 0 0 0 0 0 0 0 0 0 0 0 0 0 0 0 0 127 0"/>
<feOffset/>
<feGaussianBlur stdDeviation="8"/>
<feColorMatrix type="matrix" values="0 0 0 0 0.704167 0 0 0 0 0.704167 0 0 0 0 0.704167 0 0 0 0.25 0"/>
<feBlend mode="normal" in2="BackgroundImageFix" result="effect1_dropShadow"/>
<feBlend mode="normal" in="SourceGraphic" in2="effect1_dropShadow" result="shape"/>
</filter>
</defs>
</svg>
