<svg xmlns="http://www.w3.org/2000/svg" width="40" height="40" fill="none" viewBox="0 0 40 40"><path fill="#FF7D95" fill-rule="evenodd" d="M39.2188 9.00845V2.50657C39.2188 1.55657 38.4415 0.781494 37.4937 0.781494H2.50633C1.55633 0.781494 0.78125 1.55657 0.78125 2.50657V9.00845H39.2188Z" clip-rule="evenodd"/><path fill="#fff" fill-rule="evenodd" d="M7.33406 26.5519C7.33406 19.5562 13.0033 13.8848 19.9989 13.8848C26.9945 13.8848 32.666 19.5562 32.666 26.5519C32.666 28.9723 31.9862 31.2356 30.808 33.16H37.4937C38.4415 33.16 39.2188 32.3827 39.2188 31.4349V9.00842H0.78125V31.4349C0.78125 32.3827 1.55633 33.16 2.50633 33.16H9.19195C8.01164 31.2356 7.33406 28.9723 7.33406 26.5519Z" clip-rule="evenodd"/><path fill="#A0E5A5" fill-rule="evenodd" d="M15.7713 21.7398C15.7713 19.8707 17.3037 18.3383 19.1728 18.3383H20.8248C22.6961 18.3383 24.2263 19.8707 24.2263 21.7398V24.5323H24.6183C25.3291 24.5323 25.9116 25.1147 25.9116 25.8255V28.813C25.9116 32.0639 23.252 34.7258 19.9987 34.7258C16.7478 34.7258 14.0859 32.0639 14.0859 28.813V25.8255C14.0859 25.1147 14.6684 24.5323 15.3814 24.5323H15.7712V21.7398H15.7713ZM32.6659 26.5519C32.6659 19.5562 26.9945 13.8848 19.9988 13.8848C13.0031 13.8848 7.33398 19.5562 7.33398 26.5519C7.33398 28.9723 8.01164 31.2356 9.19195 33.16C11.4176 36.7941 15.4259 39.2189 19.9988 39.2189C24.5741 39.2189 28.5801 36.794 30.8079 33.16C31.9861 31.2356 32.6659 28.9723 32.6659 26.5519Z" clip-rule="evenodd"/><path fill="#FFEC80" fill-rule="evenodd" d="M24.2264 24.5321H15.7714H15.3816C14.6685 24.5321 14.0861 25.1145 14.0861 25.8254V28.8128C14.0861 32.0637 16.748 34.7256 19.9989 34.7256C23.2521 34.7256 25.9117 32.0637 25.9117 28.8128V25.8254C25.9117 25.1145 25.3293 24.5321 24.6185 24.5321H24.2264Z" clip-rule="evenodd"/><path fill="#A0E5A5" fill-rule="evenodd" d="M24.2263 21.7397C24.2263 19.8707 22.6961 18.3383 20.8248 18.3383H19.1728C17.3037 18.3383 15.7713 19.8707 15.7713 21.7397V24.5322H24.2264V21.7397H24.2263Z" clip-rule="evenodd"/><path fill="#000" d="M30.2919 5.67518C30.7233 5.67518 31.0732 5.32533 31.0732 4.89392C31.0732 4.46252 30.7233 4.11267 30.2919 4.11267H30.2875C29.8561 4.11267 29.5084 4.46252 29.5084 4.89392C29.5084 5.32533 29.8605 5.67518 30.2919 5.67518Z"/><path fill="#000" d="M34.5085 5.67518C34.9399 5.67518 35.2897 5.32533 35.2897 4.89392C35.2897 4.46252 34.9399 4.11267 34.5085 4.11267H34.504C34.0726 4.11267 33.725 4.46252 33.725 4.89392C33.725 5.32533 34.0771 5.67518 34.5085 5.67518Z"/><path fill="#000" d="M26.0755 5.67518C26.5069 5.67518 26.8568 5.32533 26.8568 4.89392C26.8568 4.46252 26.5069 4.11267 26.0755 4.11267H26.0711C25.6396 4.11267 25.292 4.46252 25.292 4.89392C25.292 5.32533 25.644 5.67518 26.0755 5.67518Z"/><path fill="#000" d="M5.48938 5.67518H17.2286C17.6601 5.67518 18.0098 5.32533 18.0098 4.89392C18.0098 4.46252 17.6601 4.11267 17.2286 4.11267H5.48938C5.0579 4.11267 4.70813 4.46252 4.70813 4.89392C4.70813 5.32533 5.0579 5.67518 5.48938 5.67518Z"/><path fill="#000" d="M37.4937 0H2.50641C1.12437 0 0 1.1243 0 2.50633V31.4347C0 32.8166 1.12437 33.941 2.50641 33.941H8.75906C9.25766 34.6959 9.83633 35.405 10.4909 36.0596C13.0312 38.5999 16.4083 39.9989 20 39.9989C23.5918 39.9989 26.9688 38.5999 29.5091 36.0596C30.1677 35.4009 30.7435 34.6904 31.2366 33.941H37.4937C38.8756 33.941 40 32.8166 40 31.4347V2.50633C40 1.1243 38.8756 0 37.4937 0ZM2.50641 1.5625H37.4937C38.0141 1.5625 38.4375 1.98594 38.4375 2.50633V8.22695H1.5625V2.50633C1.5625 1.98594 1.98594 1.5625 2.50641 1.5625ZM37.4937 32.3785H32.1192C34.5191 27.3756 33.6498 21.1844 29.5091 17.0437C27.404 14.9386 24.7353 13.6178 21.7916 13.2242C18.9425 12.8434 15.9955 13.3958 13.4932 14.7798C13.1156 14.9887 12.9788 15.4641 13.1877 15.8416C13.3965 16.2192 13.872 16.3559 14.2494 16.1472C18.8568 13.5987 24.6774 14.4217 28.4042 18.1485C33.0377 22.782 33.0377 30.3213 28.4042 34.9547C26.1591 37.1998 23.1744 38.4363 20 38.4363C16.8256 38.4363 13.8409 37.1998 11.5958 34.9547C7.86953 31.2285 7.04656 25.4087 9.59437 20.8022C9.8032 20.4246 9.66641 19.9493 9.28883 19.7404C8.91141 19.5316 8.43594 19.6684 8.22711 20.0459C6.84305 22.5482 6.29062 25.4949 6.67148 28.3432C6.86141 29.7631 7.26773 31.1188 7.87328 32.3784H2.50641C1.98594 32.3784 1.5625 31.955 1.5625 31.4346V9.7893H38.4375V31.4346C38.4375 31.9551 38.0141 32.3785 37.4937 32.3785Z"/><path fill="#000" d="M19.999 31.0535C20.4304 31.0535 20.7802 30.7036 20.7802 30.2722V28.4076C20.7802 27.9762 20.4304 27.6263 19.999 27.6263C19.5676 27.6263 19.2177 27.9762 19.2177 28.4076V30.2722C19.2177 30.7037 19.5675 31.0535 19.999 31.0535Z"/><path fill="#000" d="M19.9989 35.5069C23.69 35.5069 26.6929 32.5039 26.6929 28.8128V25.8254C26.6929 24.8146 25.9661 23.9709 25.0077 23.7881V21.7396C25.0077 19.4333 23.1313 17.5569 20.8249 17.5569H19.1729C16.8666 17.5569 14.9902 19.4333 14.9902 21.7396V23.7884C14.0316 23.9718 13.3049 24.8152 13.3049 25.8254V28.8128C13.3049 32.504 16.3078 35.5069 19.9989 35.5069ZM16.5527 21.7396C16.5527 20.2949 17.728 19.1194 19.1729 19.1194H20.8249C22.2698 19.1194 23.4452 20.2949 23.4452 21.7396V23.7509H16.5527V21.7396ZM14.8674 25.8254C14.8674 25.5478 15.1029 25.3134 15.3816 25.3134H24.6184C24.8959 25.3134 25.1304 25.5478 25.1304 25.8254V28.8128C25.1304 31.6424 22.8284 33.9444 19.9989 33.9444C17.1694 33.9444 14.8674 31.6424 14.8674 28.8128V25.8254Z"/><path fill="#000" d="M10.491 17.044C10.1859 17.3491 10.1859 17.8438 10.491 18.1489C10.6436 18.3014 10.8435 18.3778 11.0434 18.3778C11.2434 18.3778 11.4434 18.3014 11.5959 18.1489L11.5981 18.1468C11.9031 17.8417 11.902 17.3481 11.597 17.043C11.2919 16.7379 10.7962 16.7389 10.491 17.044Z"/></svg>