<svg width="34" height="40" viewBox="0 0 34 40" fill="none" xmlns="http://www.w3.org/2000/svg">
<path fill-rule="evenodd" clip-rule="evenodd" d="M22.8818 4.43636C23.2626 5.85745 24.6343 6.74846 26.0544 6.5651C26.182 6.54862 26.3099 6.52346 26.4375 6.48924C27.9863 6.07424 28.9054 4.48229 28.4904 2.93355C28.0754 1.38472 26.4834 0.465658 24.9347 0.880658C23.7621 1.1948 22.9505 2.18355 22.8054 3.31745C22.7588 3.68128 22.781 4.06011 22.8818 4.43636Z" fill="#FF5D7D"/>
<path fill-rule="evenodd" clip-rule="evenodd" d="M26.0543 6.56512C24.6343 6.74848 23.2626 5.85754 22.8817 4.43637C22.7809 4.06012 22.7588 3.6813 22.8056 3.31747C22.5138 3.31536 22.221 3.35223 21.9353 3.42887C20.396 3.8413 19.4087 5.28543 19.5179 6.81793C19.5325 7.02301 19.5668 7.22973 19.622 7.43567C20.0896 9.1809 21.8835 10.2167 23.6288 9.74902C24.4218 9.53652 25.0683 9.05027 25.4938 8.41918C25.8573 7.88004 26.0597 7.2352 26.0543 6.56512Z" fill="#FF5D7D"/>
<path fill-rule="evenodd" clip-rule="evenodd" d="M23.6289 9.74895C21.8836 10.2166 20.0897 9.18082 19.622 7.43558C19.5668 7.22956 19.5325 7.02292 19.5182 6.81792L7.78098 3.67297L0.78125 29.7963L6.39761 31.3013L20.3738 35.0461L21.6863 30.1481L26.5844 31.4606L31.7522 12.1738L32.2717 10.2353L25.4939 8.41918C25.0683 9.05027 24.4219 9.53653 23.6289 9.74895Z" fill="#FFDA8F"/>
<path fill-rule="evenodd" clip-rule="evenodd" d="M26.5844 31.4606L21.6863 30.1481L20.3738 35.0462L26.5844 31.4606Z" fill="#FFCD69"/>
<path fill-rule="evenodd" clip-rule="evenodd" d="M26.5844 31.4606L20.3739 35.0462L6.39767 31.3013V39.2187H31.7523V12.1738L26.5844 31.4606Z" fill="#FFC144"/>
<path d="M32.9483 9.84458C32.8447 9.66512 32.674 9.53418 32.4739 9.48059L26.6137 7.91042C26.693 7.68144 26.7515 7.4437 26.7887 7.20003C27.6731 6.92362 28.4109 6.33455 28.877 5.52713C29.3691 4.67486 29.4998 3.68196 29.245 2.73133C28.7192 0.768893 26.6946 -0.399786 24.7325 0.12592C23.4709 0.463969 22.5383 1.42171 22.1722 2.58375C22.0244 2.60625 21.8776 2.63539 21.7333 2.67414C20.6876 2.9543 19.8136 3.62493 19.2723 4.56243C19.0439 4.95814 18.8871 5.38158 18.8022 5.81728L7.98325 2.91836C7.78294 2.86461 7.56981 2.89281 7.39044 2.99641C7.21098 3.1 7.08004 3.27063 7.02645 3.47078L0.026641 29.5942C-0.0270312 29.7944 0.00109402 30.0076 0.104688 30.187C0.208283 30.3665 0.378909 30.4974 0.579067 30.551L5.61644 31.9008V39.2187C5.61644 39.6502 5.96621 40 6.3977 40H31.7523C32.1838 40 32.5336 39.6502 32.5336 39.2187V12.2765L33.0264 10.4374C33.08 10.2373 33.0519 10.024 32.9483 9.84458ZM25.137 1.63523C26.2674 1.33288 27.4331 2.00554 27.7358 3.1357C27.8824 3.68321 27.8072 4.25509 27.5238 4.74587C27.2405 5.23673 26.7828 5.58783 26.2353 5.73455C25.6878 5.88111 25.1159 5.80596 24.6252 5.5226C24.1343 5.23916 23.7832 4.78165 23.6365 4.23415C23.3337 3.10399 24.0067 1.93812 25.137 1.63523ZM20.6254 5.34377C20.9411 4.79704 21.4409 4.3986 22.0403 4.21212C22.0609 4.35423 22.0891 4.49657 22.1272 4.63853C22.3819 5.58916 22.9916 6.38369 23.8439 6.87581C24.2558 7.11362 24.7007 7.26581 25.1577 7.33214C24.9072 8.12894 24.265 8.7698 23.4267 8.99441C22.1004 9.34965 20.7321 8.5598 20.3766 7.23346C20.2045 6.59096 20.2929 5.91986 20.6254 5.34377ZM8.33349 4.62978L18.8195 7.43956C18.8338 7.50581 18.8497 7.5719 18.8674 7.63784C18.9861 8.08113 19.1748 8.48738 19.4177 8.8484L18.5989 9.66715C18.2939 9.97223 18.2939 10.4669 18.5989 10.7721C18.7515 10.9246 18.9515 11.0009 19.1514 11.0009C19.3513 11.0009 19.5513 10.9246 19.7038 10.7721L20.5244 9.95153C21.183 10.3932 21.9675 10.6422 22.7831 10.6422C23.1293 10.6422 23.4812 10.5975 23.8311 10.5037C24.6043 10.2965 25.2759 9.87184 25.787 9.30653L31.3148 10.7876L26.032 30.5036L21.8885 29.3934C21.4717 29.2816 21.0433 29.529 20.9316 29.9458L19.8214 34.0893L1.73814 29.244L8.33349 4.62978ZM24.5605 31.727L21.6167 33.4265L22.2388 31.1049L24.5605 31.727ZM30.9711 38.4375H7.17895V32.3195L20.1716 35.8008C20.2382 35.8187 20.3061 35.8275 20.3738 35.8275C20.5098 35.8275 20.6447 35.792 20.7644 35.7228L26.975 32.1371C27.1545 32.0335 27.2854 31.8629 27.339 31.6628L30.971 18.1079V38.4375H30.9711Z" fill="black"/>
<path d="M9.66947 14.7374L25.1042 18.8732C25.1719 18.8913 25.24 18.9001 25.3069 18.9001C25.6518 18.9001 25.9675 18.6698 26.0611 18.3208C26.1728 17.904 25.9254 17.4757 25.5086 17.364L10.0739 13.2282C9.65697 13.1164 9.22876 13.3638 9.11704 13.7806C9.00532 14.1973 9.25267 14.6257 9.66947 14.7374Z" fill="black"/>
<path d="M8.85697 17.7696L24.2917 21.9054C24.3594 21.9235 24.4275 21.9323 24.4944 21.9323C24.8393 21.9323 25.155 21.7021 25.2486 21.353C25.3603 20.9363 25.1129 20.5079 24.6961 20.3962L9.26142 16.2604C8.8447 16.1486 8.41618 16.396 8.30454 16.8128C8.1929 17.2295 8.44024 17.6579 8.85697 17.7696Z" fill="black"/>
<path d="M12.7695 20.4501L8.44892 19.2925C8.03212 19.1807 7.60368 19.4281 7.49204 19.8449C7.38032 20.2616 7.62767 20.69 8.04446 20.8017L12.3651 21.9594C12.4328 21.9775 12.5009 21.9862 12.5678 21.9862C12.9127 21.9862 13.2284 21.756 13.322 21.4069C13.4337 20.9902 13.1863 20.5619 12.7695 20.4501Z" fill="black"/>
<path d="M15.9641 21.3337H15.9636C15.5321 21.3337 15.1826 21.6836 15.1826 22.115C15.1826 22.5464 15.5326 22.8962 15.9641 22.8962C16.3956 22.8962 16.7453 22.5464 16.7453 22.115C16.7453 21.6836 16.3956 21.3337 15.9641 21.3337Z" fill="black"/>
</svg>
