<svg width="144" height="42" viewBox="0 0 144 42" fill="none" xmlns="http://www.w3.org/2000/svg">
	<g clip-path="url(#clip0)">
		<path d="M17.832 19.479H17.721V19.399L17.928 19.113C17.9641 19.0656 18.0141 19.0307 18.071 19.013L18.23 18.913C18.2507 18.8565 18.2507 18.7945 18.23 18.738C18.2188 18.7158 18.213 18.6914 18.213 18.6665C18.213 18.6417 18.2188 18.6172 18.23 18.595C18.2454 18.5649 18.268 18.5391 18.2957 18.5198C18.3234 18.5004 18.3555 18.4881 18.389 18.484V18.384V18.464H18.532L18.832 18.353H19.532C19.546 18.3772 19.5533 18.4046 19.5533 18.4325C19.5533 18.4604 19.546 18.4879 19.532 18.512H19.632C19.6484 18.523 19.6678 18.5288 19.6875 18.5288C19.7073 18.5288 19.7266 18.523 19.743 18.512H20.65C20.6823 18.5275 20.7177 18.5356 20.7535 18.5356C20.7893 18.5356 20.8247 18.5275 20.857 18.512H20.937V18.612C20.9504 18.6843 20.9853 18.7508 21.037 18.803L21.164 19.042V19.142C21.1897 19.1321 21.2183 19.1321 21.244 19.142C21.2599 19.1829 21.2599 19.2282 21.244 19.269C21.2356 19.2863 21.2312 19.3053 21.2312 19.3245C21.2312 19.3438 21.2356 19.3627 21.244 19.38V19.507C21.3164 19.6084 21.4022 19.6996 21.499 19.778C21.5452 19.8084 21.5803 19.853 21.599 19.905C21.599 20.005 21.599 20.016 21.774 20.005C21.8852 19.9849 21.9925 19.9474 22.092 19.894H22.235C22.166 19.9714 22.1169 20.0644 22.092 20.165C22.0542 20.2419 22.0118 20.3163 21.965 20.388C21.9144 20.468 21.8497 20.5382 21.774 20.595C21.5783 20.7059 21.4141 20.8649 21.297 21.057C21.2608 21.1163 21.2338 21.1807 21.217 21.248C21.2088 21.2809 21.2088 21.3152 21.217 21.348C21.2496 21.3921 21.2765 21.4402 21.297 21.491C21.3088 21.5187 21.3149 21.5485 21.3149 21.5785C21.3149 21.6086 21.3088 21.6384 21.297 21.666V21.746H21.217L20.994 21.873H20.841V22.223H20.741C20.7133 22.2331 20.6886 22.2501 20.6692 22.2723C20.6498 22.2945 20.6363 22.3212 20.63 22.35C20.61 22.466 20.5575 22.5739 20.4785 22.6612C20.3996 22.7485 20.2974 22.8116 20.184 22.843H19.913C19.8201 22.8749 19.7337 22.9233 19.658 22.986H19.578L19.478 22.886C19.4621 22.8452 19.4621 22.7999 19.478 22.759V22.679L19.367 22.579C19.332 22.5534 19.3037 22.5198 19.2844 22.481C19.2651 22.4422 19.2553 22.3994 19.256 22.356C19.2483 22.314 19.2483 22.271 19.256 22.229C19.2949 22.1328 19.2949 22.0252 19.256 21.929C19.1968 21.8555 19.1584 21.7675 19.145 21.674C19.1322 21.6007 19.1386 21.5253 19.1637 21.4551C19.1887 21.385 19.2316 21.3226 19.288 21.274V21.147C19.2574 21.0648 19.2574 20.9743 19.288 20.892C19.2992 20.8727 19.305 20.8508 19.305 20.8285C19.305 20.8062 19.2992 20.7843 19.288 20.765L19.188 20.685L19.077 20.585C19.0634 20.5731 19.0525 20.5584 19.0451 20.542C19.0376 20.5255 19.0337 20.5076 19.0337 20.4895C19.0337 20.4714 19.0376 20.4536 19.0451 20.4371C19.0525 20.4206 19.0634 20.4059 19.077 20.394V20.294C19.046 20.2235 19.003 20.1589 18.95 20.103H18.87C18.8405 20.1184 18.8078 20.1264 18.7745 20.1264C18.7413 20.1264 18.7085 20.1184 18.679 20.103H18.599L19.108 20.549C18.9767 20.5817 18.8393 20.5817 18.708 20.549C18.6277 20.5438 18.5504 20.516 18.485 20.469C18.4112 20.4215 18.3509 20.3557 18.31 20.278C18.2687 20.2049 18.2082 20.1444 18.135 20.103C18.1253 20.0862 18.1201 20.067 18.1201 20.0475C18.1201 20.028 18.1253 20.0089 18.135 19.992C18.1412 19.9339 18.1412 19.8752 18.135 19.817V19.674C18.1432 19.6412 18.1432 19.6069 18.135 19.574L17.832 19.479Z" fill="#FBBF19"/>
		<path d="M22.909 21.995C22.9233 22.047 22.9233 22.1019 22.909 22.154L22.75 22.488C22.7268 22.5495 22.7268 22.6174 22.75 22.679V22.779C22.7453 22.7988 22.7363 22.8175 22.7238 22.8336C22.7112 22.8497 22.6954 22.8629 22.6773 22.8724C22.6592 22.8819 22.6392 22.8874 22.6188 22.8885C22.5984 22.8896 22.578 22.8864 22.559 22.879C22.5015 22.8319 22.4599 22.7682 22.44 22.6966C22.4202 22.625 22.423 22.5489 22.448 22.479C22.4558 22.437 22.4558 22.3939 22.448 22.352C22.448 22.352 22.448 22.225 22.548 22.209C22.5841 22.198 22.6164 22.1774 22.6416 22.1494C22.6668 22.1213 22.6839 22.087 22.691 22.05C22.71 21.9947 22.7498 21.9491 22.802 21.923H22.902C22.9087 21.949 22.914 21.9756 22.918 22.003L22.909 21.995Z" fill="#FBBF19"/>
		<path d="M16.48 21.182C16.5023 21.227 16.5336 21.2669 16.572 21.2993C16.6103 21.3317 16.6549 21.3559 16.7029 21.3705C16.7509 21.385 16.8015 21.3896 16.8513 21.3839C16.9012 21.3782 16.9494 21.3624 16.9929 21.3374C17.0364 21.3124 17.0744 21.2787 17.1044 21.2385C17.1344 21.1983 17.1559 21.1523 17.1676 21.1035C17.1792 21.0547 17.1807 21.004 17.172 20.9545C17.1633 20.9051 17.1446 20.858 17.117 20.816V20.689C16.8202 20.1648 16.6527 19.5773 16.6284 18.9754C16.604 18.3734 16.7235 17.7743 16.9769 17.2278C17.2303 16.6812 17.6103 16.203 18.0855 15.8327C18.5607 15.4623 19.1173 15.2106 19.7092 15.0984C20.3011 14.9861 20.9112 15.0166 21.4889 15.1873C22.0667 15.358 22.5954 15.6639 23.0313 16.0797C23.4672 16.4956 23.7977 17.0093 23.9954 17.5784C24.1931 18.1475 24.2523 18.7555 24.168 19.352C24.0841 19.9999 23.8439 20.6177 23.468 21.152C23.4066 21.2194 23.3726 21.3073 23.3726 21.3985C23.3726 21.4897 23.4066 21.5776 23.468 21.645C23.5041 21.6933 23.551 21.7324 23.6049 21.7594C23.6588 21.7863 23.7182 21.8004 23.7785 21.8004C23.8388 21.8004 23.8982 21.7863 23.9521 21.7594C24.006 21.7324 24.0529 21.6933 24.089 21.645C24.6375 20.8651 24.9067 19.923 24.853 18.971C24.8519 18.3399 24.7176 17.7161 24.4591 17.1403C24.2005 16.5646 23.8234 16.0499 23.3524 15.6298C22.8813 15.2097 22.327 14.8936 21.7256 14.7023C21.1241 14.511 20.4891 14.4486 19.8619 14.5194C19.2348 14.5901 18.6296 14.7923 18.0859 15.1129C17.5422 15.4334 17.0722 15.865 16.7066 16.3794C16.341 16.8939 16.0881 17.4797 15.9642 18.0986C15.8404 18.7175 15.8485 19.3555 15.988 19.971C16.0913 20.3966 16.2575 20.8044 16.481 21.181L16.48 21.182Z" fill="#FBBF19"/>
		<path d="M22.035 24.4451H18.691C18.5861 24.4451 18.501 24.5301 18.501 24.6351V24.8761C18.501 24.981 18.5861 25.0661 18.691 25.0661H22.035C22.1399 25.0661 22.225 24.981 22.225 24.8761V24.6351C22.225 24.5301 22.1399 24.4451 22.035 24.4451Z" fill="#FBBF19"/>
		<path d="M21.924 25.384H18.818C18.7131 25.384 18.628 25.4691 18.628 25.574V25.815C18.628 25.92 18.7131 26.005 18.818 26.005H21.924C22.0289 26.005 22.114 25.92 22.114 25.815V25.574C22.114 25.4691 22.0289 25.384 21.924 25.384Z" fill="#FBBF19"/>
		<path d="M11.068 14.801L14.681 11.188C14.2023 11.1723 13.7254 11.255 13.28 11.431C12.8345 11.607 12.4299 11.8726 12.0912 12.2113C11.7526 12.55 11.487 12.9546 11.311 13.4C11.135 13.8455 11.0523 14.3223 11.068 14.801Z" fill="white"/>
		<path d="M40.576 18.19C39.9735 16.5426 38.9201 15.0977 37.536 14.02C37.3991 13.9215 37.2902 13.789 37.22 13.6355C37.1499 13.4821 37.1209 13.313 37.136 13.145C37.1758 12.4559 37.1758 11.7651 37.136 11.076C37.1116 9.47039 36.5518 7.91887 35.5455 6.66747C34.5392 5.41608 33.144 4.53643 31.581 4.16801C30.3176 3.96535 29.0406 3.85904 27.761 3.85001C27.514 3.81669 27.282 3.71249 27.093 3.55001C26.584 3.08801 26.154 2.55001 25.629 2.08601C24.7318 1.22692 23.6353 0.60412 22.438 0.273536C21.2406 -0.0570478 19.9799 -0.0850612 18.769 0.192012C16.8021 0.752634 15.0606 1.91629 13.79 3.51901C13.7005 3.61615 13.5925 3.69435 13.4722 3.74898C13.352 3.8036 13.222 3.83353 13.09 3.83701H10.91C9.36164 3.86556 7.86489 4.39858 6.647 5.35513C5.42912 6.31168 4.55663 7.63951 4.162 9.13701C3.91389 10.3356 3.80185 11.5583 3.82801 12.782C3.82801 13.307 3.82801 13.705 3.31901 14.055C2.83303 14.4293 2.38999 14.8562 1.99801 15.328C0.862339 16.6091 0.170081 18.2223 0.0240053 19.928C-0.0707552 21.1679 0.13418 22.4123 0.621512 23.5564C1.10884 24.7004 1.86427 25.7103 2.82401 26.501C3.22069 26.755 3.5295 27.1249 3.70843 27.5606C3.88736 27.9963 3.92771 28.4766 3.82401 28.936C3.82401 29.366 3.82401 29.78 3.82401 30.209C3.88028 31.7733 4.44299 33.277 5.42747 34.494C6.41195 35.7109 7.76497 36.5753 9.283 36.957C10.5073 37.1694 11.7485 37.2698 12.991 37.257C13.1559 37.2396 13.3224 37.2641 13.4753 37.328C13.6283 37.392 13.7626 37.4934 13.866 37.623C14.2813 38.1281 14.7393 38.5965 15.235 39.023C16.2609 40.0377 17.5617 40.7296 18.9765 41.0133C20.3913 41.2969 21.8582 41.1598 23.196 40.619C24.7209 39.9334 26.0542 38.884 27.079 37.563C27.2654 37.3987 27.4995 37.2985 27.747 37.277H29.927C31.4643 37.2327 32.9492 36.7086 34.1736 35.7781C35.398 34.8476 36.3007 33.5573 36.755 32.088C37.13 30.7374 37.2541 29.3294 37.121 27.934C37.1011 27.786 37.1217 27.6353 37.1805 27.498C37.2393 27.3607 37.3342 27.2418 37.455 27.154C37.942 26.7466 38.3995 26.3052 38.824 25.833C39.801 24.85 40.4829 23.6129 40.7926 22.262C41.1022 20.9111 41.0272 19.5004 40.576 18.19ZM35.976 10.534C36.2895 13.3108 35.7921 16.1189 34.544 18.619C33.891 20.099 33.064 21.5 32.316 22.932H32.157V18.159L33.144 19.751C33.812 19.035 33.908 18.685 33.319 17.984C32.2129 16.6214 31.5418 14.9578 31.393 13.209C31.3095 12.6729 31.198 12.1415 31.059 11.617L35.197 13.606C35.497 12.683 35.452 12.476 34.624 12.014C33.478 11.473 32.316 10.979 31.154 10.502C31.0053 10.4498 30.8699 10.3657 30.7571 10.2557C30.6443 10.1457 30.5569 10.0123 30.501 9.86501C29.801 8.27301 29.053 6.55401 28.336 4.93101C29.2084 4.77028 30.1044 4.78953 30.969 4.98757C31.8337 5.18561 32.6488 5.55827 33.3642 6.08268C34.0797 6.60708 34.6804 7.27217 35.1295 8.03712C35.5786 8.80206 35.8667 9.65072 35.976 10.531V10.534ZM25.822 37.274C24.6767 38.6639 23.0747 39.6014 21.302 39.919C20.3859 40.0404 19.4544 39.9608 18.5721 39.6859C17.6898 39.411 16.878 38.9473 16.193 38.327C15.747 37.961 15.334 37.527 14.952 37.181C16.766 36.465 18.501 35.764 20.252 35.096C20.4382 35.0352 20.6388 35.0352 20.825 35.096C22.019 35.558 23.196 36.067 24.406 36.496C25.377 36.83 25.393 36.796 25.998 35.859L21.698 34.347C22.8032 33.5115 23.9515 32.7344 25.138 32.019C25.8094 31.8166 26.5058 31.7095 27.207 31.701C27.3178 31.686 27.4302 31.686 27.541 31.701C28.416 31.701 28.782 31.176 28.83 30.301L27.33 30.601C27.7544 30.0295 28.2286 29.4968 28.747 29.009C29.4776 28.2475 29.883 27.2313 29.877 26.176C29.577 26.494 29.352 26.717 29.145 26.956C26.0037 30.5016 22.1028 33.2926 17.733 35.121C15.7836 35.9405 13.6886 36.3575 11.574 36.347C10.6587 36.3896 9.74471 36.238 8.89216 35.9021C8.0396 35.5663 7.26778 35.0538 6.6274 34.3985C5.98702 33.7431 5.49259 32.9596 5.1766 32.0994C4.86061 31.2393 4.73023 30.3221 4.794 29.408C4.8426 26.3663 5.66401 23.3869 7.18101 20.75C7.64826 19.878 8.18043 19.0423 8.773 18.25V22.866L7.78601 21.274C7.64931 21.3978 7.54006 21.5489 7.4653 21.7176C7.39054 21.8862 7.35191 22.0686 7.35191 22.253C7.35191 22.4375 7.39054 22.6199 7.4653 22.7885C7.54006 22.9571 7.64931 23.1082 7.78601 23.232C8.79723 24.5184 9.38735 26.0852 9.476 27.719C9.603 28.719 9.731 28.754 10.861 28.945C9.49994 23.4521 9.49994 17.71 10.861 12.217C9.906 12.217 9.683 12.424 9.492 13.299C9.43436 13.5185 9.39193 13.7417 9.365 13.967C9.25306 15.2325 8.73375 16.4276 7.88501 17.373C7.45501 17.898 7.13701 18.519 6.65901 19.251L5.15901 14.938C4.25201 15.384 4.18801 15.495 4.52201 16.53C4.85601 17.565 5.38601 18.859 5.86401 20.019C5.92665 20.162 5.959 20.3164 5.959 20.4725C5.959 20.6286 5.92665 20.783 5.86401 20.926C5.16301 22.619 4.51401 24.319 3.84201 26.069C3.69901 25.926 3.44201 25.735 3.24201 25.512C2.47794 24.8197 1.8813 23.9628 1.49721 23.0059C1.11313 22.0491 0.951653 21.0174 1.02501 19.989C1.29291 18.0046 2.33555 16.2069 3.925 14.989C6.3763 12.9972 9.25995 11.6071 12.345 10.93C15.7218 10.104 19.2049 9.79819 22.674 10.023C22.8104 10.0528 22.9516 10.0528 23.088 10.023C22.356 9.54601 21.799 8.81301 20.78 8.87701C19.761 8.94101 19.029 8.87701 18.074 8.87701L19.666 7.89001C18.743 7.20601 18.6 7.14201 17.788 7.79001C16.4929 8.84222 14.9138 9.48487 13.252 9.63601C12.6742 9.70735 12.1048 9.8353 11.552 10.018L13.51 5.86401C12.71 5.53001 12.396 5.60901 12.03 6.40501C11.473 7.58301 10.995 8.79201 10.438 9.98601C10.3497 10.1823 10.2118 10.3521 10.038 10.479C8.446 11.227 6.68001 11.943 5.02401 12.659C4.75696 11.3524 4.89765 9.99528 5.42704 8.77123C5.95644 7.54718 6.849 6.51525 7.98401 5.81501C9.56919 5.0089 11.3653 4.71403 13.125 4.97101C17.4237 5.5848 21.4561 7.41864 24.744 10.255C26.336 11.576 27.832 13.12 29.36 14.568C29.5059 14.7036 29.6441 14.8471 29.774 14.998C29.8414 14.4715 29.7761 13.9365 29.5839 13.4418C29.3918 12.947 29.079 12.5081 28.674 12.165L27.082 10.653C27.087 10.6199 27.087 10.5862 27.082 10.553L28.865 10.935C28.738 9.86901 28.658 9.77301 27.687 9.56601C27.4919 9.49605 27.2912 9.44286 27.087 9.40701C25.786 9.30498 24.5525 8.78594 23.57 7.92701C22.9491 7.4686 22.3005 7.04881 21.628 6.67001L25.941 5.07801C25.559 4.23401 25.368 4.10701 24.524 4.41001C23.314 4.85601 22.124 5.33301 20.943 5.81001C20.8021 5.88004 20.6469 5.91649 20.4895 5.91649C20.3321 5.91649 20.1769 5.88004 20.036 5.81001C18.444 5.14201 16.694 4.50501 15.007 3.85201C16.0083 2.60668 17.3614 1.69164 18.89 1.22601C19.9138 0.950572 20.9912 0.941983 22.0193 1.20106C23.0474 1.46015 23.992 1.97826 24.763 2.70601C26.8228 4.54364 28.3587 6.89449 29.214 9.51901C30.2009 12.2154 30.7908 15.041 30.965 17.907C31.3094 22.1347 30.8281 26.3891 29.548 30.433C28.8122 32.9547 27.5413 35.288 25.822 37.274ZM28.194 36.159L28.385 35.759C29.085 34.259 29.802 32.767 30.485 31.259C30.5424 31.1046 30.6314 30.964 30.7465 30.8462C30.8616 30.7284 31 30.636 31.153 30.575C32.653 29.907 34.129 29.19 35.625 28.49C35.7631 28.4305 35.8967 28.3614 36.025 28.283C36.502 32.501 34.115 36.575 28.194 36.161V36.159ZM38.937 23.84C37.0297 26.4959 34.2907 28.4395 31.154 29.363L31.854 25.336C31.8706 25.2601 31.9048 25.1892 31.954 25.129L34.294 21.707L35.886 26.007C36.809 25.482 36.857 25.434 36.507 24.415C36.157 23.396 35.568 22.155 35.043 20.993C34.9795 20.8614 34.9465 20.7171 34.9465 20.571C34.9465 20.4249 34.9795 20.2806 35.043 20.149C35.727 18.478 36.364 16.791 37.032 15.056C38.0642 15.9156 38.8801 17.0055 39.414 18.238C39.7991 19.1391 39.957 20.1211 39.8739 21.0975C39.7907 22.0739 39.469 23.015 38.937 23.838V23.84Z" fill="white"/>
		<path d="M20.824 28.9651H20.999C21.2708 28.9651 21.5316 28.8583 21.7253 28.6676C21.9189 28.4769 22.0298 28.2178 22.034 27.9461V27.5801C22.034 27.4449 22.0071 27.3111 21.9549 27.1864C21.9027 27.0617 21.8262 26.9486 21.7299 26.8538C21.6336 26.759 21.5194 26.6842 21.3939 26.634C21.2684 26.5837 21.1342 26.5589 20.999 26.5611H19.508C19.2377 26.5611 18.9786 26.6684 18.7875 26.8595C18.5964 27.0506 18.489 27.3098 18.489 27.5801V27.9461C18.489 28.2163 18.5964 28.4755 18.7875 28.6666C18.9786 28.8577 19.2377 28.9651 19.508 28.9651H19.619C19.5347 29.2367 19.3917 29.4866 19.2002 29.6969C19.0086 29.9072 18.7732 30.0729 18.5106 30.1822C18.248 30.2915 17.9646 30.3418 17.6804 30.3295C17.3962 30.3172 17.1182 30.2426 16.866 30.1111C15.8203 29.6984 14.8268 29.164 13.906 28.5191C12.9517 27.7949 12.0376 27.0191 11.168 26.1951C11.1221 26.7676 11.2494 27.3407 11.5333 27.84C11.8172 28.3393 12.2446 28.7417 12.76 28.9951C13.078 29.2021 13.36 29.4721 13.683 29.6791L15.45 30.8091C12.0432 30.354 8.76298 29.2174 5.80501 27.4671C5.51901 28.5811 5.53401 28.6611 6.40501 29.0591C7.55101 29.6001 8.71301 30.0941 9.87501 30.5711C10.0253 30.6203 10.1623 30.7033 10.2755 30.8137C10.3887 30.9242 10.4751 31.0591 10.528 31.2081C11.0053 32.4081 11.536 33.5857 12.12 34.7411C12.502 35.5411 12.788 35.6001 13.62 35.2821L11.689 31.2561C14.6514 31.8921 17.6678 32.2437 20.697 32.3061C21.7036 32.2266 22.6528 31.8053 23.387 31.1121H19.217C19.6154 30.88 19.9631 30.5702 20.2394 30.201C20.5156 29.8318 20.7148 29.4108 20.825 28.9631L20.824 28.9651Z" fill="white"/>
		<path d="M46.751 21.978C46.9893 21.974 47.2257 22.02 47.445 22.1132C47.6643 22.2064 47.8616 22.3447 48.024 22.519C48.3735 22.8657 48.5783 23.3321 48.597 23.824V25.988H53.245C53.4842 25.9767 53.7229 26.0194 53.9433 26.1131C54.1637 26.2067 54.3602 26.3489 54.518 26.529C54.8404 26.8739 55.017 27.33 55.011 27.802C55.0117 28.0374 54.9641 28.2705 54.871 28.4867C54.7779 28.7029 54.6414 28.8977 54.47 29.059C54.3188 29.2358 54.1306 29.3773 53.9188 29.4735C53.707 29.5698 53.4767 29.6184 53.244 29.616H48.598V32.592C48.5913 33.3981 48.8995 34.1749 49.457 34.757C49.7242 35.0562 50.0564 35.2902 50.428 35.441C50.8051 35.6026 51.2118 35.684 51.622 35.68C52.0336 35.6904 52.4436 35.6256 52.832 35.489C53.1596 35.3691 53.4574 35.1798 53.705 34.934C54.0508 34.6212 54.496 34.4409 54.962 34.425C55.4424 34.4317 55.9027 34.6191 56.251 34.95C56.4261 35.105 56.5671 35.2947 56.665 35.507C56.752 35.7142 56.8005 35.9355 56.808 36.16C56.8229 36.3873 56.7888 36.6151 56.708 36.828C56.6378 37.0391 56.5177 37.2302 56.358 37.385C55.7556 37.981 55.0489 38.4613 54.273 38.802C53.5016 39.1247 52.6742 39.2922 51.838 39.295C50.9302 39.3015 50.029 39.1398 49.18 38.818C48.3668 38.5122 47.6199 38.0528 46.98 37.465C46.3437 36.8666 45.8336 36.1468 45.48 35.348C45.1063 34.4775 44.9062 33.5423 44.891 32.595V23.745C44.8886 23.5124 44.9373 23.2821 45.0335 23.0702C45.1297 22.8584 45.2712 22.6703 45.448 22.519C45.7973 22.1875 46.2557 21.9951 46.737 21.978H46.751Z" fill="white"/>
		<path d="M59.803 22.151C60.0281 22.1429 60.2523 22.1826 60.4609 22.2676C60.6695 22.3526 60.8577 22.4809 61.013 22.644C61.3506 22.9842 61.5492 23.4381 61.57 23.917V27.1C62.0167 26.8199 62.5141 26.6306 63.034 26.543C63.5581 26.4373 64.0914 26.384 64.626 26.384C65.4871 26.3807 66.3409 26.5426 67.141 26.861C67.915 27.1766 68.6224 27.6357 69.226 28.214C69.81 28.7545 70.2899 29.3974 70.642 30.111C71.0049 30.8881 71.1897 31.7364 71.183 32.594V37.56C71.1839 37.7901 71.1394 38.0182 71.052 38.2311C70.9647 38.4441 70.8362 38.6377 70.674 38.801C70.3426 39.1398 69.8909 39.3342 69.417 39.342C69.1963 39.3452 68.9772 39.3048 68.7723 39.2229C68.5674 39.141 68.3807 39.0194 68.223 38.865C67.8953 38.54 67.6876 38.1134 67.634 37.655V32.785C67.6152 31.9952 67.3033 31.2406 66.759 30.668C66.2114 30.1027 65.4624 29.7771 64.6755 29.7621C63.8886 29.7471 63.1278 30.044 62.559 30.588C61.9933 31.1375 61.6432 31.8715 61.572 32.657V37.557C61.5729 37.7871 61.5284 38.0152 61.441 38.2281C61.3537 38.4411 61.2252 38.6347 61.063 38.798C60.7316 39.1368 60.2799 39.3312 59.806 39.339C59.5928 39.3403 59.3815 39.2987 59.1846 39.2168C58.9877 39.1348 58.8093 39.0142 58.66 38.862C58.3352 38.5336 58.1248 38.1093 58.06 37.652V23.745C58.0858 23.3062 58.2727 22.8923 58.585 22.583C58.7465 22.4298 58.9384 22.3122 59.1482 22.2378C59.358 22.1634 59.5811 22.1338 59.803 22.151Z" fill="white"/>
		<path d="M78.81 26.1801C79.6721 26.183 80.5239 26.3673 81.31 26.7211C82.0908 27.0745 82.8021 27.5649 83.41 28.1691C84.0086 28.7736 84.4972 29.4778 84.854 30.2501C85.2077 31.0302 85.3921 31.8765 85.395 32.7331C85.4037 32.9477 85.3605 33.1613 85.2691 33.3558C85.1777 33.5502 85.0408 33.7197 84.87 33.8501C84.4888 34.1286 84.0192 34.2587 83.549 34.2161H76.419C76.6339 34.687 76.9786 35.0869 77.4127 35.3689C77.8468 35.6509 78.3524 35.8032 78.87 35.8081C79.1126 35.8447 79.3594 35.8447 79.602 35.8081C79.785 35.769 79.9617 35.7047 80.127 35.6171L80.589 35.4261C80.7684 35.3995 80.9507 35.3995 81.13 35.4261C81.4834 35.4446 81.8249 35.5602 82.117 35.7601C82.3856 35.9511 82.5996 36.2089 82.738 36.5081C82.8696 36.808 82.9137 37.1391 82.865 37.4631C82.8171 37.8211 82.6489 38.1522 82.388 38.4021C81.928 38.7966 81.3832 39.0799 80.796 39.2301C80.1762 39.3881 79.5412 39.4789 78.902 39.5011C78.0487 39.5345 77.1992 39.3713 76.419 39.0241C74.8268 38.3342 73.5615 37.0574 72.886 35.4591C72.5419 34.6651 72.3633 33.8094 72.361 32.9441C72.3616 32.0941 72.5405 31.2536 72.886 30.4771C73.569 28.8988 74.8174 27.633 76.386 26.9281C77.1339 26.5145 77.9591 26.2599 78.81 26.1801ZM81.277 31.2251C81.1158 30.8813 80.8856 30.5745 80.6007 30.3236C80.3158 30.0727 79.9823 29.8832 79.6209 29.7668C79.2596 29.6504 78.8781 29.6096 78.5004 29.6469C78.1226 29.6843 77.7565 29.7991 77.425 29.9841C76.9592 30.2604 76.5876 30.671 76.359 31.1621L81.277 31.2251Z" fill="white"/>
		<path d="M94.659 22.01C94.8886 21.9981 95.1178 22.0417 95.327 22.137C95.5435 22.2301 95.7427 22.3593 95.916 22.519C96.2433 22.8632 96.4305 23.3171 96.441 23.792V26.975C97.0541 26.6562 97.7157 26.441 98.399 26.338C99.0693 26.2424 99.7497 26.2424 100.42 26.338C101.094 26.4323 101.749 26.631 102.362 26.927C103.808 27.5731 104.948 28.754 105.542 30.222C105.872 31.0351 106.034 31.9065 106.019 32.784C106.025 33.6604 105.846 34.5283 105.494 35.331C105.152 36.106 104.672 36.8125 104.077 37.416C103.474 38.007 102.767 38.4816 101.992 38.816C101.195 39.1666 100.332 39.3455 99.461 39.341C98.6059 39.3357 97.7613 39.1511 96.982 38.799C96.2025 38.4567 95.4912 37.9767 94.882 37.382C94.2742 36.7833 93.7829 36.077 93.433 35.299C93.0715 34.5101 92.8868 33.6517 92.892 32.784V23.744C92.8899 23.5216 92.9446 23.3023 93.051 23.107C93.1563 22.9038 93.2964 22.7207 93.465 22.566C93.6247 22.4084 93.814 22.284 94.022 22.2C94.2134 22.0806 94.4335 22.015 94.659 22.01ZM96.442 32.737C96.4398 33.1419 96.5212 33.5429 96.681 33.915C96.8363 34.2755 97.0636 34.6005 97.349 34.87C97.6234 35.1459 97.9474 35.3674 98.304 35.523C98.6704 35.6828 99.0662 35.7642 99.466 35.762C99.8655 35.7611 100.261 35.6798 100.628 35.523C100.987 35.3638 101.316 35.1428 101.599 34.87C101.875 34.5922 102.101 34.2692 102.267 33.915C102.425 33.5422 102.506 33.1417 102.506 32.737C102.506 32.3323 102.425 31.9317 102.267 31.559C102.101 31.2 101.875 30.8718 101.599 30.588C101.315 30.3201 100.987 30.1044 100.628 29.951C100.264 29.7818 99.8674 29.6948 99.466 29.696C99.0652 29.6992 98.6694 29.7861 98.304 29.951C97.5868 30.2968 97.0128 30.8821 96.681 31.606C96.5259 31.9626 96.4446 32.347 96.442 32.736V32.737Z" fill="white"/>
		<path d="M109.381 26.1481C109.613 26.1522 109.842 26.2022 110.055 26.295C110.268 26.3878 110.461 26.5217 110.622 26.6891C110.796 26.8515 110.935 27.0488 111.028 27.2681C111.121 27.4874 111.167 27.7238 111.163 27.9621V32.7381C111.158 33.1449 111.246 33.5476 111.418 33.9161C111.568 34.272 111.784 34.5961 112.055 34.8711C112.332 35.1509 112.662 35.3728 113.026 35.5241C113.398 35.6839 113.799 35.7653 114.204 35.7631C114.59 35.7669 114.974 35.6966 115.334 35.5561C115.691 35.4162 116.02 35.2129 116.305 34.9561C116.58 34.6993 116.802 34.3911 116.958 34.0491C117.123 33.678 117.21 33.2771 117.213 32.8711V27.9471C117.211 27.719 117.255 27.493 117.343 27.2823C117.43 27.0717 117.559 26.8808 117.722 26.7211C118.047 26.3783 118.491 26.1732 118.963 26.1481C119.423 26.1656 119.86 26.3496 120.194 26.6659C120.528 26.9822 120.735 27.4092 120.777 27.8671V32.7381C120.781 33.6127 120.607 34.479 120.268 35.2851C119.932 36.0632 119.451 36.7706 118.852 37.3701C118.255 37.968 117.546 38.4435 116.767 38.7701C115.96 39.1236 115.086 39.3026 114.205 39.2951C113.348 39.327 112.494 39.1693 111.705 38.8331C110.925 38.5139 110.212 38.0493 109.605 37.4641C108.998 36.8704 108.507 36.1688 108.157 35.3951C107.803 34.6207 107.617 33.7797 107.614 32.9281V27.9471C107.613 27.7169 107.658 27.4888 107.745 27.2759C107.832 27.063 107.961 26.8693 108.123 26.7061C108.453 26.3621 108.905 26.1616 109.381 26.1481Z" fill="white"/>
		<path d="M124.279 22.1521C124.508 22.1437 124.736 22.1848 124.948 22.2727C125.159 22.3605 125.349 22.493 125.505 22.6611C125.843 23.0013 126.041 23.4552 126.062 23.9341V34.6341C126.057 34.8034 126.085 34.972 126.145 35.1304C126.205 35.2888 126.296 35.4338 126.412 35.5571C126.525 35.6791 126.663 35.775 126.817 35.8382C126.971 35.9014 127.137 35.9304 127.303 35.9231C127.762 35.9257 128.204 36.1009 128.54 36.4141C128.709 36.5706 128.844 36.7602 128.937 36.971C129.031 37.1819 129.079 37.4096 129.081 37.6401C129.086 37.8511 129.05 38.0611 128.973 38.2579C128.897 38.4546 128.782 38.6342 128.635 38.7861C128.341 39.1212 127.932 39.335 127.489 39.3861H127.107C126.492 39.3903 125.883 39.2599 125.324 39.0041C124.775 38.7396 124.275 38.3846 123.844 37.9541C123.417 37.4883 123.078 36.9489 122.844 36.3621C122.604 35.7889 122.48 35.1736 122.48 34.5521V23.7451C122.538 23.3053 122.74 22.897 123.053 22.5831C123.219 22.4337 123.412 22.3188 123.623 22.2448C123.833 22.1708 124.056 22.1393 124.279 22.1521Z" fill="white"/>
		<path d="M132.014 22.01C132.249 21.9968 132.484 22.0403 132.698 22.137C132.908 22.2341 133.101 22.363 133.271 22.519C133.442 22.6873 133.578 22.8874 133.671 23.108C133.759 23.3251 133.802 23.5578 133.798 23.792V26.975C134.417 26.6562 135.084 26.441 135.772 26.338C136.437 26.2425 137.112 26.2425 137.777 26.338C138.456 26.438 139.116 26.6403 139.735 26.938C140.378 27.2406 140.969 27.6436 141.486 28.132C142.09 28.7367 142.576 29.4489 142.918 30.232C143.248 31.0451 143.411 31.9165 143.396 32.794C143.404 33.6724 143.22 34.5418 142.855 35.341C142.518 36.1217 142.035 36.8313 141.433 37.432C140.836 38.0299 140.127 38.5055 139.348 38.832C138.559 39.1836 137.705 39.3653 136.841 39.3653C135.977 39.3653 135.123 39.1836 134.334 38.832C133.559 38.4897 132.853 38.0096 132.249 37.415C131.636 36.8199 131.145 36.1119 130.801 35.33C130.439 34.5411 130.255 33.6828 130.26 32.815V23.745C130.258 23.5226 130.313 23.3033 130.419 23.108C130.525 22.9087 130.659 22.7264 130.819 22.567C130.981 22.4128 131.17 22.2888 131.376 22.201C131.568 22.0811 131.788 22.0152 132.014 22.01ZM133.797 32.737C133.792 33.1439 133.88 33.5465 134.052 33.915C134.208 34.2716 134.429 34.5957 134.705 34.87C134.988 35.1428 135.317 35.3639 135.676 35.523C136.042 35.6843 136.438 35.7657 136.838 35.762C137.232 35.7625 137.623 35.6812 137.984 35.523C138.345 35.3672 138.674 35.1458 138.955 34.87C139.24 34.6005 139.468 34.2755 139.623 33.915C139.861 33.3582 139.925 32.7421 139.806 32.1482C139.687 31.5543 139.39 31.0106 138.955 30.589C138.673 30.3189 138.344 30.103 137.984 29.952C137.625 29.781 137.231 29.6945 136.833 29.699C136.432 29.7003 136.036 29.7873 135.671 29.954C135.31 30.1242 134.982 30.3557 134.7 30.638C134.427 30.921 134.206 31.2496 134.047 31.609C133.879 31.9622 133.792 32.3481 133.792 32.739L133.797 32.737Z" fill="white"/>
		<path d="M48.63 9.70699C49.2936 9.73219 49.9421 9.91196 50.524 10.232C51.0623 10.5443 51.5505 10.9361 51.972 11.394V7.30399C51.9718 7.22675 51.9871 7.15026 52.0172 7.07911C52.0473 7.00797 52.0914 6.94364 52.147 6.88999C52.1987 6.83673 52.261 6.79502 52.33 6.76761C52.3989 6.7402 52.4729 6.72772 52.547 6.73099C52.6235 6.72631 52.7001 6.73793 52.7717 6.76508C52.8433 6.79222 52.9084 6.83427 52.9626 6.88844C53.0167 6.94261 53.0588 7.00766 53.0859 7.0793C53.1131 7.15094 53.1247 7.22752 53.12 7.30399V14.196C53.1303 14.8083 53.011 15.416 52.77 15.979C52.5477 16.5044 52.2231 16.9803 51.815 17.379C51.4033 17.7781 50.9166 18.0918 50.383 18.302C49.8376 18.5255 49.2534 18.639 48.664 18.636C48.0623 18.6431 47.4658 18.5239 46.913 18.286C46.3855 18.0583 45.905 17.7344 45.496 17.331C45.0994 16.9164 44.7765 16.4372 44.541 15.914C44.3124 15.3696 44.1935 14.7854 44.191 14.195C44.2018 13.5951 44.3381 13.0041 44.591 12.46C44.8186 11.9286 45.1486 11.4471 45.562 11.043C45.9689 10.6329 46.4497 10.3035 46.979 10.072C47.4994 9.83666 48.0629 9.71202 48.634 9.70599L48.63 9.70699ZM51.972 14.195C51.931 13.3025 51.5691 12.4549 50.953 11.808C50.6495 11.5155 50.2932 11.2834 49.903 11.124C49.5072 10.9496 49.0785 10.8626 48.646 10.869C48.2043 10.8738 47.7673 10.9602 47.357 11.124C46.9604 11.2946 46.5989 11.5373 46.291 11.84C45.9849 12.1418 45.7463 12.5052 45.591 12.906C45.4144 13.3129 45.3222 13.7514 45.32 14.195C45.3301 15.071 45.678 15.9092 46.291 16.535C46.5989 16.8376 46.9604 17.0804 47.357 17.251C47.7649 17.4225 48.2035 17.5093 48.646 17.506C49.0887 17.5116 49.5278 17.4247 49.935 17.251C50.7257 16.9058 51.3568 16.2747 51.702 15.484C51.8809 15.0778 51.9729 14.6388 51.972 14.195Z" fill="white"/>
		<path d="M55.251 14.736C55.3096 15.123 55.4391 15.4959 55.633 15.836C55.8285 16.165 56.0756 16.4605 56.365 16.711C56.9612 17.2391 57.7337 17.5246 58.53 17.511C58.9657 17.5131 59.3978 17.432 59.803 17.272C60.1939 17.1068 60.5502 16.8693 60.853 16.572C60.9069 16.5177 60.9716 16.4755 61.043 16.4481C61.1143 16.4207 61.1907 16.4087 61.267 16.413C61.3411 16.4097 61.4151 16.4222 61.4841 16.4496C61.553 16.477 61.6154 16.5187 61.667 16.572C61.7233 16.625 61.768 16.6893 61.7981 16.7605C61.8283 16.8318 61.8432 16.9086 61.842 16.986C61.8422 17.0612 61.8268 17.1355 61.7967 17.2044C61.7665 17.2733 61.7224 17.3351 61.667 17.386C61.3007 17.8208 60.8295 18.155 60.298 18.357C59.7303 18.5549 59.1322 18.6517 58.531 18.643C57.3456 18.6608 56.2014 18.2089 55.348 17.386C54.94 16.9873 54.6153 16.5114 54.393 15.986C54.1816 15.4138 54.093 14.8036 54.133 14.195C54.1283 13.6054 54.2419 13.0209 54.467 12.476C54.6869 11.9481 55.0056 11.4672 55.406 11.059C55.8216 10.6565 56.3068 10.3329 56.838 10.104C57.4029 9.86288 58.0072 9.72731 58.621 9.70398C59.1701 9.70954 59.7122 9.82871 60.213 10.054C60.7271 10.2898 61.1998 10.6069 61.613 10.993C62.4499 11.8077 62.9402 12.9138 62.982 14.081C62.9961 14.1699 62.989 14.2608 62.9614 14.3465C62.9338 14.4321 62.8864 14.5101 62.823 14.574C62.7059 14.6705 62.5606 14.7263 62.409 14.733L55.251 14.736ZM58.533 10.869C58.1351 10.87 57.741 10.9457 57.371 11.092C57.0093 11.22 56.6746 11.4143 56.384 11.665C56.1114 11.936 55.8902 12.2541 55.731 12.604C55.5394 12.9346 55.4042 13.2949 55.331 13.67H61.857C61.7913 13.2928 61.6556 12.9313 61.457 12.604C61.2613 12.2798 61.0141 11.9896 60.725 11.745C60.437 11.4908 60.1016 11.296 59.738 11.172C59.3584 10.9932 58.9472 10.8912 58.528 10.872L58.533 10.869Z" fill="white"/>
		<path d="M63.973 18.0791C63.9796 17.9292 64.0421 17.7873 64.1482 17.6812C64.2542 17.5752 64.3962 17.5127 64.546 17.5061H68.541C68.7129 17.5098 68.8837 17.4778 69.0426 17.412C69.2015 17.3463 69.345 17.2482 69.464 17.1241C69.5922 17.0073 69.6941 16.8646 69.763 16.7055C69.832 16.5464 69.8664 16.3745 69.864 16.2011C69.8559 15.8533 69.7141 15.522 69.4681 15.276C69.2221 15.03 68.8908 14.8882 68.543 14.8801H66.376C66.0317 14.8836 65.6906 14.813 65.376 14.6731C65.0686 14.5461 64.7877 14.3626 64.548 14.1321C64.3178 13.8888 64.1295 13.609 63.991 13.3041C63.7364 12.6545 63.7364 11.9327 63.991 11.2831C64.1305 10.9739 64.3185 10.6889 64.548 10.4391C64.7877 10.2085 65.0686 10.025 65.376 9.89807C65.6906 9.75813 66.0317 9.68753 66.376 9.69107H70.148C70.2245 9.6864 70.3011 9.69802 70.3727 9.72516C70.4443 9.7523 70.5094 9.79435 70.5636 9.84852C70.6177 9.90269 70.6598 9.96775 70.6869 10.0394C70.7141 10.111 70.7257 10.1876 70.721 10.2641C70.7243 10.3382 70.7118 10.4122 70.6844 10.4811C70.657 10.5501 70.6153 10.6124 70.562 10.6641C70.5084 10.7196 70.444 10.7638 70.3729 10.7939C70.3017 10.8239 70.2252 10.8393 70.148 10.8391H66.376C65.9917 10.8517 65.627 11.0113 65.357 11.2851C65.2242 11.4193 65.1193 11.5784 65.0483 11.7532C64.9772 11.9281 64.9414 12.1153 64.943 12.3041C64.9409 12.4927 64.9764 12.6799 65.0476 12.8546C65.1188 13.0293 65.2242 13.188 65.3576 13.3214C65.491 13.4548 65.6498 13.5602 65.8245 13.6314C65.9992 13.7026 66.1864 13.7382 66.375 13.7361H68.54C68.8679 13.7348 69.1928 13.7997 69.495 13.9271C70.0798 14.1943 70.5488 14.6632 70.816 15.2481C70.9421 15.5507 71.007 15.8753 71.007 16.2031C71.007 16.5309 70.9421 16.8555 70.816 17.1581C70.6825 17.4476 70.4994 17.7116 70.275 17.9381C70.055 18.1662 69.7892 18.3451 69.495 18.4631C69.1928 18.5904 68.8679 18.6554 68.54 18.6541H64.546C64.4719 18.6573 64.3979 18.6449 64.329 18.6175C64.26 18.59 64.1977 18.5483 64.146 18.4951C64.0904 18.4414 64.0463 18.3771 64.0162 18.3059C63.9861 18.2348 63.9708 18.1583 63.971 18.0811L63.973 18.0791Z" fill="white"/>
		<path d="M73.093 14.705V18.079C73.093 18.2309 73.0326 18.3767 72.9252 18.4841C72.8177 18.5916 72.672 18.652 72.52 18.652C72.368 18.652 72.2223 18.5916 72.1148 18.4841C72.0074 18.3767 71.947 18.2309 71.947 18.079V7.28797C71.947 7.136 72.0074 6.99025 72.1148 6.88279C72.2223 6.77534 72.368 6.71497 72.52 6.71497C72.672 6.71497 72.8177 6.77534 72.9252 6.88279C73.0326 6.99025 73.093 7.136 73.093 7.28797V13.654L76.913 9.78596C76.9931 9.7021 77.0968 9.64454 77.2104 9.62087C77.3239 9.5972 77.442 9.60855 77.5489 9.65342C77.6559 9.69828 77.7467 9.77455 77.8094 9.87214C77.8721 9.96972 77.9037 10.084 77.9 10.2C77.9033 10.2741 77.8908 10.3481 77.8634 10.417C77.836 10.486 77.7943 10.5483 77.741 10.6L74.141 14.2L77.757 17.745C77.8103 17.7966 77.852 17.859 77.8794 17.9279C77.9068 17.9969 77.9193 18.0708 77.916 18.145C77.9207 18.2214 77.9091 18.298 77.8819 18.3697C77.8548 18.4413 77.8127 18.5064 77.7586 18.5605C77.7044 18.6147 77.6393 18.6567 77.5677 18.6839C77.4961 18.711 77.4195 18.7226 77.343 18.718C77.2689 18.7212 77.1949 18.7088 77.126 18.6813C77.057 18.6539 76.9947 18.6122 76.943 18.559L73.093 14.705Z" fill="white"/>
		<path d="M93.039 14.1961C93.0369 14.3479 93.065 14.4986 93.1216 14.6395C93.1783 14.7804 93.2623 14.9087 93.369 15.0168C93.4756 15.1249 93.6026 15.2107 93.7427 15.2693C93.8828 15.3279 94.0332 15.3581 94.185 15.3581C94.3081 15.3677 94.4318 15.3529 94.5492 15.3147C94.6666 15.2764 94.7753 15.2154 94.869 15.1351C95.0502 14.9889 95.1884 14.7964 95.269 14.5781C95.3699 14.3406 95.4291 14.0876 95.444 13.8301C95.4594 13.5703 95.4594 13.3098 95.444 13.0501C95.4478 12.3068 95.3016 11.5704 95.014 10.8851C94.7629 10.2308 94.3964 9.62688 93.932 9.10207C92.8838 8.07239 91.4703 7.49996 90.001 7.51007C89.2628 7.505 88.5314 7.65135 87.852 7.94007C86.8346 8.33993 85.9594 9.03393 85.3381 9.93346C84.7169 10.833 84.3778 11.8973 84.3642 12.9904C84.3506 14.0835 84.663 15.1559 85.2616 16.0706C85.8602 16.9854 86.7178 17.701 87.725 18.1261C88.4044 18.4148 89.1358 18.5611 89.874 18.5561H90.733C91.003 18.5217 91.2704 18.4685 91.533 18.3971C91.7036 18.3413 91.8875 18.3413 92.058 18.3971C92.1364 18.4185 92.2075 18.4609 92.2635 18.5198C92.3196 18.5786 92.3585 18.6517 92.376 18.7311C92.4082 18.8124 92.4149 18.9017 92.3951 18.9869C92.3752 19.0722 92.3298 19.1493 92.265 19.2081C92.1298 19.3189 91.9797 19.4101 91.819 19.4791C91.5073 19.5795 91.1879 19.6541 90.864 19.7021C90.5355 19.7263 90.2056 19.7263 89.877 19.7021C88.9854 19.7079 88.1022 19.5292 87.283 19.1771C86.4854 18.8447 85.7579 18.3642 85.139 17.7611C84.5404 17.1487 84.06 16.431 83.722 15.6441C83.2052 14.4182 83.064 13.0666 83.3163 11.7604C83.5685 10.4542 84.2029 9.25231 85.139 8.30707C85.7498 7.69422 86.4748 7.20704 87.273 6.87307C88.0887 6.50812 88.9735 6.32358 89.867 6.33207C90.7654 6.3262 91.6549 6.51058 92.477 6.87307C93.2725 7.21053 93.9965 7.69654 94.61 8.30507C95.2394 8.92937 95.7371 9.6737 96.0734 10.4939C96.4097 11.3142 96.5779 12.1936 96.568 13.0801C96.5683 13.4754 96.5312 13.8698 96.457 14.2581C96.3954 14.6517 96.2719 15.0331 96.091 15.3881C95.9018 15.718 95.6406 16.001 95.327 16.2161C94.9626 16.4513 94.5344 16.568 94.101 16.5501C93.6808 16.5597 93.2721 16.412 92.955 16.1361C92.6398 15.8575 92.3852 15.5171 92.207 15.1361C91.8959 15.4389 91.5354 15.6864 91.141 15.8681C90.7461 16.0666 90.31 16.1693 89.868 16.1681C89.4527 16.1706 89.0412 16.0893 88.658 15.9291C88.2899 15.7705 87.955 15.5439 87.671 15.2611C87.3846 14.9796 87.1575 14.6437 87.003 14.2731C86.8428 13.8899 86.7615 13.4784 86.764 13.0631C86.7602 12.6476 86.8415 12.2358 87.003 11.8531C87.1536 11.4807 87.3812 11.1443 87.671 10.8661C87.955 10.5832 88.2899 10.3566 88.658 10.1981C89.0412 10.0378 89.4527 9.95656 89.868 9.95907C90.2687 9.95369 90.6664 10.0286 91.0377 10.1795C91.409 10.3304 91.7462 10.5541 92.0296 10.8375C92.313 11.1208 92.5367 11.4581 92.6876 11.8294C92.8384 12.2006 92.9134 12.5984 92.908 12.9991L93.039 14.1961ZM87.978 13.0181C87.9788 13.536 88.1848 14.0325 88.5508 14.3989C88.9168 14.7653 89.4131 14.9717 89.931 14.9731C90.1839 14.9797 90.4355 14.9353 90.6707 14.8423C90.906 14.7493 91.12 14.6098 91.3 14.4321C91.675 14.0555 91.8866 13.5465 91.889 13.0151C91.9022 12.7523 91.8609 12.4896 91.7678 12.2435C91.6747 11.9974 91.5317 11.7732 91.3479 11.5849C91.1641 11.3967 90.9433 11.2485 90.6995 11.1495C90.4557 11.0506 90.194 11.0031 89.931 11.0101C89.674 11.0004 89.4178 11.0449 89.1791 11.1409C88.9405 11.2369 88.7248 11.3821 88.546 11.5671C88.3554 11.7522 88.2059 11.9754 88.1071 12.2221C88.0084 12.4688 87.9627 12.7335 87.973 12.9991L87.978 13.0181Z" fill="white"/>
	</g>
	<defs>
		<clipPath id="clip0">
		<rect width="143.394" height="41.155" fill="white"/>
		</clipPath>
	</defs>
</svg>
