<svg xmlns="http://www.w3.org/2000/svg" width="12" height="12" fill="none" viewBox="0 0 12 12"><path fill="#676A7D" d="M6 0C2.68969 0 0 2.68967 0 6C0 9.31033 2.68969 12 6 12C9.31034 12 12 9.31031 12 6C12 2.68967 9.31034 0 6 0ZM6 0.571429C9.00151 0.571429 11.4286 2.99849 11.4286 6C11.4286 9.0015 9.00151 11.4286 6 11.4286C2.99851 11.4286 0.571429 9.0015 0.571429 6C0.571429 2.9985 2.99851 0.571429 6 0.571429ZM6.00443 2.28571C4.87383 2.28571 3.95146 3.03233 3.72766 3.92857C3.71638 3.96563 3.71276 4.00459 3.71701 4.0431C3.72125 4.0816 3.73329 4.11884 3.75237 4.15255C3.77145 4.18626 3.79719 4.21575 3.82801 4.2392C3.85884 4.26265 3.89411 4.27958 3.93168 4.28898C3.96925 4.29837 4.00834 4.30002 4.04657 4.29383C4.08481 4.28764 4.12138 4.27375 4.15407 4.25298C4.18677 4.23222 4.2149 4.20502 4.23676 4.17304C4.25862 4.14107 4.27375 4.10497 4.28123 4.06696C4.43016 3.47052 5.13336 2.85714 6.00443 2.85714C6.43567 2.85714 6.88001 3.01242 7.20086 3.27232C7.52173 3.53225 7.71426 3.88096 7.71426 4.28571C7.71426 4.77699 7.60734 5.02449 7.4598 5.21429C7.31219 5.40409 7.10019 5.54571 6.83926 5.73214C6.57833 5.91857 6.28243 6.15777 6.06694 6.55803C5.85147 6.9583 5.71871 7.50397 5.71871 8.28572C5.72068 8.3602 5.75165 8.43098 5.80502 8.48297C5.85839 8.53496 5.92993 8.56405 6.00443 8.56405C6.07892 8.56405 6.15047 8.53496 6.20384 8.48297C6.25721 8.43098 6.28817 8.3602 6.29014 8.28572C6.29014 7.56746 6.40751 7.12651 6.56694 6.83036C6.72636 6.5342 6.93069 6.36714 7.16961 6.19643C7.40857 6.02571 7.68783 5.8593 7.91514 5.56696C8.14247 5.27461 8.28569 4.86587 8.28569 4.28571C8.28569 3.69047 7.98219 3.1776 7.55354 2.83036C7.12484 2.48311 6.57183 2.28571 6.00443 2.28571ZM6.00443 8.85714C5.76764 8.85714 5.57586 9.04902 5.57586 9.28572C5.57586 9.52242 5.76764 9.71429 6.00443 9.71429C6.24123 9.71429 6.433 9.52242 6.433 9.28572C6.433 9.04902 6.24123 8.85714 6.00443 8.85714Z"/></svg>