<svg width="40" height="40" viewBox="0 0 40 40" fill="none" xmlns="http://www.w3.org/2000/svg">
<path d="M38 0.666626H17.3333C16.597 0.666626 16 1.26358 16 1.99996V26C16 26.7363 16.597 27.3333 17.3333 27.3333H38C38.7364 27.3333 39.3333 26.7363 39.3333 26V1.99996C39.3333 1.26358 38.7364 0.666626 38 0.666626Z" fill="#57A4FF"/>
<path d="M39.3333 1.99996V26C39.3323 26.3533 39.1914 26.6918 38.9416 26.9416C38.6918 27.1914 38.3533 27.3322 38 27.3333H35.3333C35.6866 27.3322 36.0251 27.1914 36.275 26.9416C36.5248 26.6918 36.6656 26.3533 36.6666 26V1.99996C36.6656 1.64666 36.5248 1.30814 36.275 1.05832C36.0251 0.808496 35.6866 0.667681 35.3333 0.666626H38C38.3533 0.667681 38.6918 0.808496 38.9416 1.05832C39.1914 1.30814 39.3323 1.64666 39.3333 1.99996Z" fill="#006DF0"/>
<path d="M34.1934 22.42C34.5008 22.5971 34.7253 22.8889 34.8178 23.2313C34.9103 23.5738 34.8632 23.9389 34.6867 24.2467C34.599 24.398 34.4818 24.5302 34.3421 24.6356C34.2024 24.7409 34.0431 24.8172 33.8734 24.86C33.7045 24.907 33.528 24.92 33.3541 24.8982C33.1801 24.8765 33.0122 24.8204 32.8601 24.7333L32.2801 24.3933L32.2534 24.3733C32.3871 24.1967 32.5095 24.0119 32.6201 23.82L33.2868 22.6667L33.6201 22.0867L34.1934 22.42Z" fill="#FFC477"/>
<path d="M34.6667 38V39.3333H22.6667L25.3334 36.6666L30.6667 37.4266L34.6667 38Z" fill="#FFC477"/>
<path d="M34.6667 34.6666V38L30.6667 37.4266V34.6666H34.6667Z" fill="#FFC477"/>
<path d="M30.6667 34.6666V37.4266L25.3333 36.6666L22.6667 39.3333H20V34.6666H20.6667C21.02 34.6656 21.3585 34.5248 21.6083 34.2749C21.8581 34.0251 21.9989 33.6866 22 33.3333V28.6666H24.6667C24.6667 29.3739 24.9476 30.0521 25.4477 30.5522C25.9478 31.0523 26.6261 31.3333 27.3333 31.3333C28.0406 31.3333 28.7189 31.0523 29.2189 30.5522C29.719 30.0521 30 29.3739 30 28.6666H32C32.7072 28.6666 33.3855 28.9476 33.8856 29.4477C34.3857 29.9478 34.6667 30.626 34.6667 31.3333V34.6666H30.6667Z" fill="#91DC5A"/>
<path d="M32.2467 15.14C33.3172 15.7597 34.0982 16.7788 34.4181 17.9737C34.7381 19.1686 34.571 20.4416 33.9534 21.5133L33.62 22.0867L33.2867 22.6667C33.8134 20.74 32.3067 19.0267 32.3067 19.0267C29.8467 20.3933 26.9334 19 26.9334 19C27.2667 18.42 27.9334 17.2667 27.9334 17.2667C25.3 17.9733 24.0467 17.3333 24.0467 17.3333L24.38 16.7533L24.7134 16.18C25.0193 15.6489 25.4269 15.1834 25.913 14.8101C26.399 14.4368 26.954 14.1631 27.546 14.0045C28.138 13.846 28.7555 13.8058 29.363 13.8863C29.9706 13.9667 30.5563 14.1662 31.0867 14.4733L32.2467 15.14Z" fill="#FFD422"/>
<path d="M33.9533 21.5134L33.62 22.0867L33.2866 22.6667C33.8133 20.74 32.3066 19.0267 32.3066 19.0267C32.1802 19.0983 32.0487 19.1607 31.9133 19.2134C31.9182 18.3889 31.7049 17.5779 31.2951 16.8625C30.8853 16.1471 30.2936 15.5529 29.58 15.14L28.42 14.4734C28.1062 14.2921 27.773 14.1467 27.4266 14.04C28.034 13.8586 28.672 13.8034 29.3015 13.8779C29.9309 13.9524 30.5385 14.1551 31.0866 14.4734L32.2466 15.14C33.3172 15.7597 34.0981 16.7789 34.4181 17.9737C34.7381 19.1686 34.5709 20.4416 33.9533 21.5134Z" fill="#EBBF00"/>
<path d="M32.3067 19.0266C32.3067 19.0266 33.8134 20.7399 33.2867 22.6666L32.62 23.8199C32.5095 24.0119 32.387 24.1967 32.2534 24.3733C31.53 25.2912 30.4875 25.9029 29.3334 26.0866C28.2706 26.2688 27.1777 26.0705 26.2467 25.5266L25.3334 24.9999L25.0867 24.8599C24.1145 24.2976 23.3778 23.4035 23.0116 22.3418C22.6455 21.2801 22.6745 20.122 23.0934 19.0799C23.1739 18.8753 23.2698 18.6769 23.38 18.4866L24.0467 17.3333C24.0467 17.3333 25.3 17.9733 27.9334 17.2666C27.9334 17.2666 27.2667 18.4199 26.9334 18.9999C26.9334 18.9999 29.8467 20.3933 32.3067 19.0266Z" fill="#FFC477"/>
<path d="M33.2867 22.6666L32.62 23.8199C32.5095 24.0119 32.387 24.1967 32.2533 24.3733C31.53 25.2912 30.4875 25.9029 29.3333 26.0866C28.6325 26.2055 27.9136 26.1598 27.2333 25.9533C28.1642 25.6868 28.9876 25.134 29.5867 24.3733C29.7203 24.1967 29.8428 24.0119 29.9533 23.8199L30.62 22.6666C30.7356 22.1472 30.7456 21.6098 30.6494 21.0864C30.5532 20.563 30.3527 20.0643 30.06 19.6199C30.8455 19.6043 31.6159 19.4009 32.3067 19.0266C32.3067 19.0266 33.8133 20.7399 33.2867 22.6666Z" fill="#FFA733"/>
<path d="M29.3334 28.6667H30C30 29.3739 29.7191 30.0522 29.219 30.5523C28.7189 31.0524 28.0406 31.3333 27.3334 31.3333C26.6261 31.3333 25.9478 31.0524 25.4477 30.5523C24.9476 30.0522 24.6667 29.3739 24.6667 28.6667H25.3334V25L26.2467 25.5267C27.1777 26.0705 28.2706 26.2688 29.3334 26.0867V28.6667Z" fill="#FFC477"/>
<path d="M24.38 16.7533L24.0466 17.3333L23.38 18.4866C23.2697 18.677 23.1739 18.8753 23.0933 19.08L23.0533 19.0666L22.4733 18.7333C22.1689 18.5551 21.9467 18.2646 21.8544 17.9242C21.7621 17.5838 21.8072 17.2208 21.98 16.9133C22.1571 16.6059 22.4488 16.3814 22.7913 16.2889C23.1337 16.1964 23.4989 16.2435 23.8066 16.42L24.38 16.7533Z" fill="#FFC477"/>
<path d="M20.6667 3.99994C21.3739 3.99994 22.0522 4.2809 22.5523 4.78099C23.0524 5.28109 23.3334 5.95937 23.3334 6.66661C23.3334 7.37386 23.0524 8.05213 22.5523 8.55223C22.0522 9.05233 21.3739 9.33328 20.6667 9.33328C20.3049 9.37484 19.9383 9.3367 19.5928 9.22153C19.2473 9.10636 18.9312 8.91695 18.6667 8.66661C19.1971 8.66661 19.7058 8.4559 20.0809 8.08083C20.456 7.70575 20.6667 7.19704 20.6667 6.66661C20.6667 6.13618 20.456 5.62747 20.0809 5.2524C19.7058 4.87732 19.1971 4.66661 18.6667 4.66661C18.9312 4.41627 19.2473 4.22687 19.5928 4.1117C19.9383 3.99653 20.3049 3.95838 20.6667 3.99994Z" fill="#FFD422"/>
<path d="M23.3333 6.66662C23.3333 7.37386 23.0524 8.05214 22.5523 8.55223C22.0522 9.05233 21.3739 9.33328 20.6667 9.33328C20.4032 9.33754 20.1398 9.31746 19.88 9.27328C20.479 9.14846 21.0167 8.82114 21.4027 8.34641C21.7887 7.87167 21.9995 7.27848 21.9995 6.66662C21.9995 6.05475 21.7887 5.46156 21.4027 4.98683C21.0167 4.51209 20.479 4.18478 19.88 4.05995C20.1398 4.01577 20.4032 3.99569 20.6667 3.99995C21.3739 3.99995 22.0522 4.2809 22.5523 4.781C23.0524 5.28109 23.3333 5.95937 23.3333 6.66662Z" fill="#EBBF00"/>
<path d="M22 28.6667V33.3334C21.999 33.6867 21.8581 34.0252 21.6083 34.275C21.3585 34.5248 21.02 34.6657 20.6667 34.6667H12.78L13.3334 31.3334H9.33335L8.78002 34.6667H2.00002C1.64672 34.6657 1.3082 34.5248 1.05838 34.275C0.808557 34.0252 0.667742 33.6867 0.666687 33.3334V22.6667C0.667742 22.3134 0.808557 21.9749 1.05838 21.7251C1.3082 21.4752 1.64672 21.3344 2.00002 21.3334H20.6667C21.02 21.3344 21.3585 21.4752 21.6083 21.7251C21.8581 21.9749 21.999 22.3134 22 22.6667V28.6667Z" fill="#C6C5CA"/>
<path d="M13.3333 31.3334L12.78 34.6667L12 39.3334H8L8.78 34.6667L9.33333 31.3334H13.3333Z" fill="#898890"/>
<path d="M6.66669 14.6666C9.98039 14.6666 12.6667 11.9803 12.6667 8.66663C12.6667 5.35292 9.98039 2.66663 6.66669 2.66663C3.35298 2.66663 0.666687 5.35292 0.666687 8.66663C0.666687 11.9803 3.35298 14.6666 6.66669 14.6666Z" fill="#BDFDFF"/>
<path d="M12.6666 8.66663C12.6666 10.2579 12.0345 11.784 10.9093 12.9093C9.78407 14.0345 8.25794 14.6666 6.66665 14.6666C6.21822 14.6658 5.77119 14.6166 5.33331 14.52C6.65924 14.2172 7.84309 13.4732 8.69101 12.4098C9.53894 11.3464 10.0007 10.0267 10.0007 8.66663C10.0007 7.30657 9.53894 5.98681 8.69101 4.92343C7.84309 3.86005 6.65924 3.11607 5.33331 2.81329C5.77119 2.71662 6.21822 2.66744 6.66665 2.66663C8.25794 2.66663 9.78407 3.29877 10.9093 4.42398C12.0345 5.5492 12.6666 7.07533 12.6666 8.66663Z" fill="#00E7F0"/>
<path d="M22 22.6667V33.3334C21.9989 33.6867 21.8581 34.0252 21.6083 34.275C21.3585 34.5248 21.02 34.6657 20.6667 34.6667H18C18.3533 34.6657 18.6918 34.5248 18.9416 34.275C19.1915 34.0252 19.3323 33.6867 19.3333 33.3334V22.6667C19.3323 22.3134 19.1915 21.9749 18.9416 21.7251C18.6918 21.4752 18.3533 21.3344 18 21.3334H20.6667C21.02 21.3344 21.3585 21.4752 21.6083 21.7251C21.8581 21.9749 21.9989 22.3134 22 22.6667Z" fill="#ACABB1"/>
<path d="M13.3333 31.3334L12.78 34.6667L12 39.3334H10L10.78 34.6667L11.3333 31.3334H13.3333Z" fill="#787680"/>
<path d="M32.6667 37.7333L34.6667 37.9999V39.3333H32.6667V37.9999V37.7333Z" fill="#FFA733"/>
<path d="M34.6667 34.6666V38L32.6667 37.7333V34.6666H34.6667Z" fill="#FFA733"/>
<path d="M34.6667 31.3333V34.6666H32.6667V31.3333C32.6667 30.626 32.3857 29.9478 31.8856 29.4477C31.3855 28.9476 30.7072 28.6666 30 28.6666H32C32.7072 28.6666 33.3855 28.9476 33.8856 29.4477C34.3857 29.9478 34.6667 30.626 34.6667 31.3333Z" fill="#5EAC24"/>
<path d="M28.6666 11.3333C28.6666 11.5101 28.5964 11.6797 28.4714 11.8047C28.3464 11.9297 28.1768 12 28 12H26C25.8681 12.0005 25.7391 11.9613 25.6297 11.8876C25.5204 11.8139 25.4357 11.7091 25.3866 11.5866C25.3356 11.4652 25.3216 11.3314 25.3466 11.2021C25.3715 11.0728 25.4341 10.9537 25.5266 10.86L26.3933 9.99996H26C25.8232 9.99996 25.6536 9.92973 25.5286 9.8047C25.4036 9.67968 25.3333 9.51011 25.3333 9.3333C25.3333 9.15649 25.4036 8.98692 25.5286 8.86189C25.6536 8.73687 25.8232 8.66663 26 8.66663H28C28.1319 8.66613 28.2609 8.70527 28.3702 8.77897C28.4796 8.85267 28.5643 8.95754 28.6133 9.07996C28.6644 9.20137 28.6783 9.33518 28.6534 9.46451C28.6285 9.59383 28.5658 9.71288 28.4733 9.80663L27.6066 10.6666H28C28.1768 10.6666 28.3464 10.7369 28.4714 10.8619C28.5964 10.9869 28.6666 11.1565 28.6666 11.3333Z" fill="black"/>
<path d="M34 7.99996C34 8.17677 33.9298 8.34634 33.8047 8.47137C33.6797 8.59639 33.5101 8.66663 33.3333 8.66663H30.6667C30.5348 8.66713 30.4058 8.628 30.2964 8.55429C30.1871 8.48059 30.1024 8.37572 30.0533 8.2533C30.0023 8.13189 29.9883 7.99808 30.0132 7.86875C30.0382 7.73943 30.1008 7.62038 30.1933 7.52663L31.7267 5.99996H30.6667C30.4899 5.99996 30.3203 5.92973 30.1953 5.8047C30.0702 5.67968 30 5.51011 30 5.3333C30 5.15649 30.0702 4.98692 30.1953 4.86189C30.3203 4.73687 30.4899 4.66663 30.6667 4.66663H33.3333C33.4652 4.66613 33.5942 4.70527 33.7036 4.77897C33.8129 4.85267 33.8976 4.95754 33.9467 5.07996C33.9977 5.20137 34.0117 5.33518 33.9868 5.46451C33.9618 5.59383 33.8992 5.71288 33.8067 5.80663L32.2733 7.3333H33.3333C33.5101 7.3333 33.6797 7.40354 33.8047 7.52856C33.9298 7.65358 34 7.82315 34 7.99996Z" fill="black"/>
<path d="M40 4C40 4.17682 39.9297 4.34638 39.8047 4.47141C39.6797 4.59643 39.5101 4.66667 39.3333 4.66667H36C35.8681 4.66717 35.7391 4.62804 35.6297 4.55433C35.5204 4.48063 35.4357 4.37576 35.3866 4.25334C35.3356 4.13193 35.3216 3.99812 35.3466 3.8688C35.3715 3.73947 35.4341 3.62042 35.5266 3.52667L37.7266 1.33334H36C35.8232 1.33334 35.6536 1.2631 35.5286 1.13808C35.4036 1.01305 35.3333 0.843482 35.3333 0.666671C35.3333 0.48986 35.4036 0.320291 35.5286 0.195267C35.6536 0.0702426 35.8232 4.79139e-06 36 4.79139e-06H39.3333C39.4652 -0.00049838 39.5942 0.0386399 39.7035 0.112343C39.8129 0.186045 39.8976 0.290912 39.9466 0.413338C39.9977 0.534745 40.0116 0.668554 39.9867 0.79788C39.9618 0.927207 39.8992 1.04626 39.8066 1.14L37.6066 3.33334H39.3333C39.5101 3.33334 39.6797 3.40358 39.8047 3.5286C39.9297 3.65362 40 3.82319 40 4Z" fill="black"/>
<path d="M6.66667 2C5.34813 2 4.0592 2.39099 2.96287 3.12354C1.86654 3.85608 1.01206 4.89727 0.507473 6.11544C0.00288856 7.33362 -0.129134 8.67406 0.128101 9.96727C0.385336 11.2605 1.02027 12.4484 1.95262 13.3807C2.88497 14.3131 4.07286 14.948 5.36607 15.2052C6.65927 15.4625 7.99972 15.3304 9.21789 14.8259C10.4361 14.3213 11.4773 13.4668 12.2098 12.3705C12.9423 11.2741 13.3333 9.98521 13.3333 8.66667C13.3305 6.89942 12.6272 5.20537 11.3776 3.95574C10.128 2.70611 8.43391 2.00282 6.66667 2ZM6.66667 14C5.61184 14 4.58069 13.6872 3.70363 13.1012C2.82657 12.5151 2.14298 11.6822 1.73931 10.7076C1.33564 9.73311 1.23003 8.66075 1.43581 7.62618C1.6416 6.59162 2.14955 5.64131 2.89543 4.89543C3.64131 4.14955 4.59162 3.6416 5.62619 3.43581C6.66075 3.23002 7.73311 3.33564 8.70765 3.73931C9.68219 4.14298 10.5151 4.82656 11.1012 5.70363C11.6872 6.58069 12 7.61183 12 8.66667C11.9981 10.0806 11.4355 11.436 10.4358 12.4358C9.43599 13.4355 8.08056 13.9981 6.66667 14Z" fill="black"/>
<path d="M6.66665 9.33332H8.66665C8.84346 9.33332 9.01303 9.26308 9.13805 9.13806C9.26308 9.01303 9.33331 8.84346 9.33331 8.66665C9.33331 8.48984 9.26308 8.32027 9.13805 8.19525C9.01303 8.07022 8.84346 7.99999 8.66665 7.99999H8.27598L9.13798 7.13799C9.25942 7.01225 9.32661 6.84385 9.3251 6.66905C9.32358 6.49425 9.25346 6.32705 9.12986 6.20344C9.00625 6.07984 8.83904 6.00972 8.66425 6.0082C8.48945 6.00668 8.32105 6.07388 8.19531 6.19532L6.19531 8.19532C6.10211 8.28855 6.03864 8.40733 6.01292 8.53663C5.98721 8.66593 6.00041 8.79996 6.05086 8.92176C6.10131 9.04356 6.18673 9.14766 6.29634 9.22092C6.40595 9.29418 6.53481 9.33329 6.66665 9.33332Z" fill="black"/>
<path d="M18.6667 8C18.5383 7.99994 18.4127 8.03693 18.3048 8.10655C18.197 8.17617 18.1115 8.27544 18.0587 8.39245C18.0059 8.50946 17.988 8.63922 18.0072 8.76615C18.0263 8.89308 18.0817 9.01179 18.1667 9.108C18.4938 9.42913 18.8868 9.67525 19.3185 9.82928C19.7502 9.98332 20.2102 10.0416 20.6667 10C21.5507 10 22.3986 9.64881 23.0237 9.02369C23.6488 8.39857 24 7.55072 24 6.66667C24 5.78261 23.6488 4.93476 23.0237 4.30964C22.3986 3.68452 21.5507 3.33333 20.6667 3.33333C20.2102 3.29176 19.7502 3.35001 19.3185 3.50405C18.8868 3.65808 18.4938 3.9042 18.1667 4.22533C18.0817 4.32155 18.0263 4.44025 18.0072 4.56718C17.988 4.69411 18.0059 4.82387 18.0587 4.94088C18.1115 5.05789 18.197 5.15716 18.3048 5.22678C18.4127 5.2964 18.5383 5.3334 18.6667 5.33333C19.0203 5.33333 19.3595 5.47381 19.6095 5.72386C19.8595 5.97391 20 6.31304 20 6.66667C20 7.02029 19.8595 7.35943 19.6095 7.60947C19.3595 7.85952 19.0203 8 18.6667 8ZM20.4334 4.67067C20.508 4.66667 20.5854 4.66667 20.6667 4.66667C21.1971 4.66667 21.7058 4.87738 22.0809 5.25245C22.456 5.62752 22.6667 6.13623 22.6667 6.66667C22.6667 7.1971 22.456 7.70581 22.0809 8.08088C21.7058 8.45595 21.1971 8.66667 20.6667 8.66667C20.5854 8.66667 20.508 8.66667 20.4334 8.66267C20.7158 8.41245 20.9419 8.10516 21.0967 7.76108C21.2516 7.417 21.3317 7.04398 21.3317 6.66667C21.3317 6.28935 21.2516 5.91633 21.0967 5.57225C20.9419 5.22818 20.7158 4.92088 20.4334 4.67067Z" fill="black"/>
<path d="M39.3333 38.6667H35.3333V31.3334C35.3333 30.4493 34.9821 29.6015 34.357 28.9764C33.7319 28.3512 32.8841 28 32 28H30V26.6267C30.9043 26.3777 31.7258 25.8922 32.38 25.2201L32.5267 25.3067C32.7519 25.4417 33.0023 25.5291 33.2626 25.5635C33.5229 25.5979 33.7875 25.5786 34.04 25.5067C34.2951 25.4418 34.5345 25.3264 34.744 25.1672C34.9536 25.008 35.1291 24.8083 35.26 24.58C35.392 24.3526 35.4777 24.1013 35.5123 23.8406C35.5469 23.5799 35.5296 23.315 35.4615 23.061C35.3933 22.807 35.2757 22.5689 35.1152 22.3606C34.9548 22.1522 34.7548 21.9776 34.5267 21.8467C35.2333 20.622 35.4252 19.1669 35.0602 17.8008C34.6953 16.4347 33.8033 15.2692 32.58 14.5601L31.42 13.8934C30.8139 13.5428 30.1447 13.3152 29.4505 13.2236C28.7564 13.132 28.051 13.1783 27.3748 13.3597C26.6985 13.5412 26.0647 13.8542 25.5096 14.281C24.9546 14.7077 24.4891 15.2398 24.14 15.8467C23.8357 15.672 23.4909 15.58 23.14 15.5801C22.7883 15.5778 22.4424 15.6693 22.1378 15.8451C21.8331 16.0208 21.5808 16.2745 21.4067 16.5801C21.1433 17.0391 21.0725 17.5838 21.21 18.0949C21.3474 18.606 21.6819 19.0417 22.14 19.3067L22.2867 19.3934C22.1128 20.0107 22.054 20.6548 22.1133 21.2934C21.9281 21.0953 21.704 20.9374 21.4552 20.8296C21.2063 20.7218 20.9379 20.6664 20.6667 20.6667H2C1.47005 20.6683 0.962265 20.8795 0.587535 21.2543C0.212805 21.629 0.00158273 22.1368 0 22.6667V33.3334C0.00158273 33.8633 0.212805 34.3711 0.587535 34.7458C0.962265 35.1206 1.47005 35.3318 2 35.3334H7.99333L7.43333 38.6667H0.666667C0.489856 38.6667 0.320286 38.737 0.195262 38.862C0.0702379 38.987 0 39.1566 0 39.3334C0 39.5102 0.0702379 39.6798 0.195262 39.8048C0.320286 39.9298 0.489856 40 0.666667 40H39.3333C39.5101 40 39.6797 39.9298 39.8047 39.8048C39.9298 39.6798 40 39.5102 40 39.3334C40 39.1566 39.9298 38.987 39.8047 38.862C39.6797 38.737 39.5101 38.6667 39.3333 38.6667ZM34.1067 23.9134C34.0156 24.0644 33.8693 24.174 33.6987 24.2188C33.5282 24.2636 33.3469 24.2401 33.1933 24.1534L33.86 23.0001C33.9364 23.0436 34.0034 23.1018 34.0572 23.1714C34.111 23.241 34.1505 23.3205 34.1734 23.4054C34.1963 23.4903 34.2022 23.5789 34.1908 23.6661C34.1793 23.7532 34.1507 23.8373 34.1067 23.9134ZM25.2933 16.5134C25.8233 15.5953 26.6961 14.9252 27.7198 14.6502C28.7436 14.3752 29.8347 14.5178 30.7533 15.0467L31.9133 15.7134C32.6791 16.157 33.2763 16.8418 33.6116 17.6608C33.9469 18.4798 34.0014 19.3868 33.7667 20.2401C33.5411 19.6407 33.219 19.0822 32.8133 18.5867C32.7132 18.4712 32.5765 18.3936 32.426 18.3669C32.2755 18.3402 32.1204 18.366 31.9867 18.4401C31.3535 18.7409 30.6673 18.9141 29.9672 18.9495C29.2672 18.985 28.5669 18.8821 27.9067 18.6467L28.5133 17.6001C28.5782 17.4855 28.6083 17.3545 28.6 17.2231C28.5917 17.0917 28.5454 16.9656 28.4667 16.8601C28.3854 16.7553 28.2748 16.6772 28.1489 16.6356C28.023 16.594 27.8876 16.5909 27.76 16.6267C26.8896 16.8859 25.9777 16.9764 25.0733 16.8934L25.2933 16.5134ZM24.36 18.1334C25.1053 18.2916 25.8727 18.3165 26.6267 18.2067L26.36 18.6667C26.3126 18.7462 26.2827 18.8349 26.2724 18.9269C26.262 19.0189 26.2715 19.112 26.3 19.2001C26.3274 19.2869 26.3723 19.3671 26.4319 19.4359C26.4916 19.5047 26.5646 19.5606 26.6467 19.6001C26.7733 19.6601 29.5067 20.9401 32.0933 19.8667C32.6115 20.6123 32.8128 21.5329 32.6533 22.4267L32.04 23.4867C31.7783 23.9421 31.4294 24.3413 31.0132 24.6616C30.5969 24.9819 30.1216 25.2169 29.6144 25.3531C29.1072 25.4894 28.578 25.5242 28.0574 25.4556C27.5367 25.387 27.0346 25.2163 26.58 24.9534L25.42 24.2867C24.5019 23.755 23.8325 22.8805 23.5587 21.8555C23.285 20.8305 23.4293 19.7387 23.96 18.8201L24.36 18.1334ZM29.22 29.3134C29.0864 29.7078 28.8325 30.0504 28.4941 30.293C28.1557 30.5357 27.7498 30.6662 27.3333 30.6662C26.9169 30.6662 26.511 30.5357 26.1726 30.293C25.8341 30.0504 25.5803 29.7078 25.4467 29.3134C25.5998 29.287 25.7389 29.2079 25.84 29.0898C25.941 28.9718 25.9976 28.8221 26 28.6667V26.1534C26.7851 26.5907 27.668 26.8224 28.5667 26.8267C28.6 26.8267 28.6333 26.8201 28.6667 26.8201V28.6667C28.6691 28.8221 28.7257 28.9718 28.8267 29.0898C28.9277 29.2079 29.0669 29.287 29.22 29.3134ZM24.6667 25.38V28H22.6667V23.2334C23.1159 24.1244 23.8097 24.869 24.6667 25.38ZM22.56 17.2467C22.6036 17.1703 22.6618 17.1033 22.7314 17.0495C22.8009 16.9957 22.8804 16.9562 22.9653 16.9333C23.0502 16.9104 23.1388 16.9045 23.226 16.9159C23.3132 16.9274 23.3972 16.956 23.4733 17.0001L22.8067 18.1534C22.7278 18.111 22.659 18.0522 22.605 17.9809C22.5509 17.9095 22.5128 17.8274 22.4933 17.7401C22.471 17.6575 22.4655 17.5714 22.4769 17.4867C22.4883 17.4019 22.5166 17.3204 22.56 17.2467ZM8.21333 34H2C1.82319 34 1.65362 33.9298 1.5286 33.8048C1.40357 33.6798 1.33333 33.5102 1.33333 33.3334V22.6667C1.33333 22.4899 1.40357 22.3203 1.5286 22.1953C1.65362 22.0703 1.82319 22.0001 2 22.0001H20.6667C20.8435 22.0001 21.013 22.0703 21.1381 22.1953C21.2631 22.3203 21.3333 22.4899 21.3333 22.6667V33.3334C21.3333 33.5102 21.2631 33.6798 21.1381 33.8048C21.013 33.9298 20.8435 34 20.6667 34H13.5667L13.9933 31.4401C14.0088 31.3446 14.0033 31.2469 13.9773 31.1537C13.9512 31.0605 13.9051 30.9742 13.8424 30.9006C13.7796 30.827 13.7015 30.768 13.6136 30.7276C13.5257 30.6872 13.4301 30.6664 13.3333 30.6667H9.33333C9.17468 30.6663 9.02107 30.7224 8.90009 30.825C8.77912 30.9277 8.69872 31.0701 8.67333 31.2267L8.21333 34ZM11.4333 38.6667H8.78667L9.9 32H12.5467L11.4333 38.6667ZM19.3333 38.6667H12.7867L13.34 35.3334H19.3333V38.6667ZM34 38.6667H24.2733L25.5667 37.3734L34 38.58V38.6667ZM34 37.2334L31.3333 36.8534V35.3334H34V37.2334ZM34 34H31.3333C31.3333 33.8232 31.2631 33.6537 31.1381 33.5286C31.013 33.4036 30.8435 33.3334 30.6667 33.3334C30.4899 33.3334 30.3203 33.4036 30.1953 33.5286C30.0702 33.6537 30 33.8232 30 34V36.6601L25.4267 36.0067C25.3243 35.9933 25.2202 36.0032 25.1221 36.0355C25.024 36.0678 24.9344 36.1218 24.86 36.1934L22.3933 38.6667H20.6667V35.3334C21.1966 35.3318 21.7044 35.1206 22.0791 34.7458C22.4539 34.3711 22.6651 33.8633 22.6667 33.3334V29.3334H24.0667C24.2197 30.0869 24.6285 30.7644 25.2238 31.251C25.8192 31.7376 26.5644 32.0034 27.3333 32.0034C28.1022 32.0034 28.8475 31.7376 29.4428 31.251C30.0382 30.7644 30.447 30.0869 30.6 29.3334H32C32.5299 29.335 33.0377 29.5462 33.4125 29.9209C33.7872 30.2956 33.9984 30.8034 34 31.3334V34Z" fill="black"/>
<path d="M6 23.3334H4.66667C4.48986 23.3334 4.32029 23.4036 4.19526 23.5286C4.07024 23.6537 4 23.8232 4 24C4 24.1769 4.07024 24.3464 4.19526 24.4714C4.32029 24.5965 4.48986 24.6667 4.66667 24.6667H6C6.17681 24.6667 6.34638 24.5965 6.4714 24.4714C6.59643 24.3464 6.66667 24.1769 6.66667 24C6.66667 23.8232 6.59643 23.6537 6.4714 23.5286C6.34638 23.4036 6.17681 23.3334 6 23.3334Z" fill="black"/>
<path d="M10.6667 24C10.6667 23.8232 10.5964 23.6537 10.4714 23.5286C10.3464 23.4036 10.1768 23.3334 10 23.3334H8.66667C8.48986 23.3334 8.32029 23.4036 8.19526 23.5286C8.07024 23.6537 8 23.8232 8 24C8 24.1769 8.07024 24.3464 8.19526 24.4714C8.32029 24.5965 8.48986 24.6667 8.66667 24.6667H10C10.1768 24.6667 10.3464 24.5965 10.4714 24.4714C10.5964 24.3464 10.6667 24.1769 10.6667 24Z" fill="black"/>
<path d="M12.6667 24.6667H14C14.1768 24.6667 14.3464 24.5965 14.4714 24.4714C14.5964 24.3464 14.6667 24.1769 14.6667 24C14.6667 23.8232 14.5964 23.6537 14.4714 23.5286C14.3464 23.4036 14.1768 23.3334 14 23.3334H12.6667C12.4899 23.3334 12.3203 23.4036 12.1953 23.5286C12.0702 23.6537 12 23.8232 12 24C12 24.1769 12.0702 24.3464 12.1953 24.4714C12.3203 24.5965 12.4899 24.6667 12.6667 24.6667Z" fill="black"/>
<path d="M16.6667 24.6667H18C18.1768 24.6667 18.3464 24.5965 18.4714 24.4714C18.5964 24.3464 18.6667 24.1769 18.6667 24C18.6667 23.8232 18.5964 23.6537 18.4714 23.5286C18.3464 23.4036 18.1768 23.3334 18 23.3334H16.6667C16.4899 23.3334 16.3203 23.4036 16.1953 23.5286C16.0702 23.6537 16 23.8232 16 24C16 24.1769 16.0702 24.3464 16.1953 24.4714C16.3203 24.5965 16.4899 24.6667 16.6667 24.6667Z" fill="black"/>
<path d="M34 0.666667C34 0.843478 33.9297 1.01305 33.8047 1.13807C33.6797 1.2631 33.5101 1.33333 33.3333 1.33333H17.3333C17.1565 1.33333 16.9869 1.40357 16.8619 1.5286C16.7369 1.65362 16.6666 1.82319 16.6666 2V18.6667C16.6666 18.8435 16.5964 19.013 16.4714 19.1381C16.3464 19.2631 16.1768 19.3333 16 19.3333C15.8232 19.3333 15.6536 19.2631 15.5286 19.1381C15.4036 19.013 15.3333 18.8435 15.3333 18.6667V2C15.3349 1.47005 15.5461 0.962265 15.9208 0.587535C16.2956 0.212805 16.8034 0.00158273 17.3333 0H33.3333C33.5101 0 33.6797 0.0702379 33.8047 0.195262C33.9297 0.320286 34 0.489856 34 0.666667Z" fill="black"/>
<path d="M39.3334 6C39.1565 6 38.987 6.07024 38.8619 6.19526C38.7369 6.32029 38.6667 6.48986 38.6667 6.66667V26C38.6667 26.1768 38.5964 26.3464 38.4714 26.4714C38.3464 26.5964 38.1768 26.6667 38 26.6667H35.3334C35.1565 26.6667 34.987 26.7369 34.8619 26.8619C34.7369 26.987 34.6667 27.1565 34.6667 27.3333C34.6667 27.5101 34.7369 27.6797 34.8619 27.8047C34.987 27.9298 35.1565 28 35.3334 28H38C38.5305 28 39.0392 27.7893 39.4142 27.4142C39.7893 27.0391 40 26.5304 40 26V6.66667C40 6.48986 39.9298 6.32029 39.8048 6.19526C39.6797 6.07024 39.5102 6 39.3334 6Z" fill="black"/>
</svg>
